<svg version="1.1" viewBox="0.0 0.0 319.37007874015745 387.002624671916" fill="none" stroke="none" stroke-linecap="square" stroke-miterlimit="10" xmlns:xlink="http://www.w3.org/1999/xlink" xmlns="http://www.w3.org/2000/svg"><clipPath id="p.0"><path d="m0 0l319.3701 0l0 387.00262l-319.3701 0l0 -387.00262z" clip-rule="nonzero"/></clipPath><g clip-path="url(#p.0)"><path fill="#000000" fill-opacity="0.0" d="m0 0l319.3701 0l0 387.00262l-319.3701 0z" fill-rule="evenodd"/><path fill="#cfe2f3" d="m41.07349 313.84647l0 0c0 -11.0979 8.7991905 -20.094482 19.653545 -20.094482l0 0c5.2124405 0 10.211395 2.1170654 13.897156 5.8855286c3.6857529 3.7684326 5.756386 8.879547 5.756386 14.208954l0 0c0 11.09787 -8.799194 20.094482 -19.653542 20.094482l0 0c-10.854355 0 -19.653545 -8.996613 -19.653545 -20.094482z" fill-rule="evenodd"/><path stroke="#000000" stroke-width="1.0" stroke-linejoin="round" stroke-linecap="butt" d="m41.07349 313.84647l0 0c0 -11.0979 8.7991905 -20.094482 19.653545 -20.094482l0 0c5.2124405 0 10.211395 2.1170654 13.897156 5.8855286c3.6857529 3.7684326 5.756386 8.879547 5.756386 14.208954l0 0c0 11.09787 -8.799194 20.094482 -19.653542 20.094482l0 0c-10.854355 0 -19.653545 -8.996613 -19.653545 -20.094482z" fill-rule="evenodd"/><path fill="#cfe2f3" d="m97.267715 313.84647l0 0c0 -11.0979 8.799194 -20.094482 19.653542 -20.094482l0 0c5.212448 0 10.211403 2.1170654 13.897163 5.8855286c3.6857452 3.7684326 5.756378 8.879547 5.756378 14.208954l0 0c0 11.09787 -8.799187 20.094482 -19.653542 20.094482l0 0c-10.854347 0 -19.653542 -8.996613 -19.653542 -20.094482z" fill-rule="evenodd"/><path stroke="#000000" stroke-width="1.0" stroke-linejoin="round" stroke-linecap="butt" d="m97.267715 313.84647l0 0c0 -11.0979 8.799194 -20.094482 19.653542 -20.094482l0 0c5.212448 0 10.211403 2.1170654 13.897163 5.8855286c3.6857452 3.7684326 5.756378 8.879547 5.756378 14.208954l0 0c0 11.09787 -8.799187 20.094482 -19.653542 20.094482l0 0c-10.854347 0 -19.653542 -8.996613 -19.653542 -20.094482z" fill-rule="evenodd"/><path fill="#cfe2f3" d="m153.46194 313.84647l0 0c0 -11.0979 8.799194 -20.094482 19.653534 -20.094482l0 0c5.212448 0 10.2114105 2.1170654 13.897156 5.8855286c3.6857605 3.7684326 5.7563934 8.879547 5.7563934 14.208954l0 0c0 11.09787 -8.799194 20.094482 -19.65355 20.094482l0 0c-10.85434 0 -19.653534 -8.996613 -19.653534 -20.094482z" fill-rule="evenodd"/><path stroke="#000000" stroke-width="1.0" stroke-linejoin="round" stroke-linecap="butt" d="m153.46194 313.84647l0 0c0 -11.0979 8.799194 -20.094482 19.653534 -20.094482l0 0c5.212448 0 10.2114105 2.1170654 13.897156 5.8855286c3.6857605 3.7684326 5.7563934 8.879547 5.7563934 14.208954l0 0c0 11.09787 -8.799194 20.094482 -19.65355 20.094482l0 0c-10.85434 0 -19.653534 -8.996613 -19.653534 -20.094482z" fill-rule="evenodd"/><path fill="#cfe2f3" d="m97.267715 204.56299l0 0c0 -11.09787 8.799194 -20.094482 19.653542 -20.094482l0 0c5.212448 0 10.211403 2.117096 13.897163 5.885544c3.6857452 3.7684479 5.756378 8.879547 5.756378 14.208939l0 0c0 11.097885 -8.799187 20.094498 -19.653542 20.094498l0 0c-10.854347 0 -19.653542 -8.996613 -19.653542 -20.094498z" fill-rule="evenodd"/><path stroke="#000000" stroke-width="1.0" stroke-linejoin="round" stroke-linecap="butt" d="m97.267715 204.56299l0 0c0 -11.09787 8.799194 -20.094482 19.653542 -20.094482l0 0c5.212448 0 10.211403 2.117096 13.897163 5.885544c3.6857452 3.7684479 5.756378 8.879547 5.756378 14.208939l0 0c0 11.097885 -8.799187 20.094498 -19.653542 20.094498l0 0c-10.854347 0 -19.653542 -8.996613 -19.653542 -20.094498z" fill-rule="evenodd"/><path fill="#000000" fill-opacity="0.0" d="m116.92126 224.65749l-48.34645 71.244095" fill-rule="evenodd"/><path stroke="#000000" stroke-width="1.0" stroke-linejoin="round" stroke-linecap="butt" d="m116.92126 224.65749l-48.34645 71.244095" fill-rule="evenodd"/><path fill="#000000" fill-opacity="0.0" d="m116.92126 224.65749l56.188972 69.10237" fill-rule="evenodd"/><path stroke="#000000" stroke-width="1.0" stroke-linejoin="round" stroke-linecap="butt" d="m116.92126 224.65749l56.188972 69.10237" fill-rule="evenodd"/><path fill="#000000" fill-opacity="0.0" d="m116.92126 224.65749l0 69.10237" fill-rule="evenodd"/><path stroke="#000000" stroke-width="1.0" stroke-linejoin="round" stroke-linecap="butt" d="m116.92126 224.65749l0 69.10237" fill-rule="evenodd"/><path fill="#000000" fill-opacity="0.0" d="m41.07349 288.8071l39.307087 0l0 50.078735l-39.307087 0z" fill-rule="evenodd"/><path fill="#222222" d="m59.77707 313.87708q0.84375 -1.921875 1.84375 -2.671875q1.0 -0.75 2.734375 -0.75q1.984375 0 3.359375 1.4375q1.375 1.421875 1.375 3.71875q0 2.265625 -1.34375 3.734375q-1.328125 1.453125 -2.984375 1.453125q-1.21875 0 -2.265625 -0.890625q-0.703125 -0.59375 -1.890625 -2.640625q-0.796875 1.53125 -1.734375 2.203125q-0.9375 0.671875 -2.28125 0.671875q-1.78125 0 -3.015625 -1.265625q-1.21875 -1.28125 -1.21875 -3.296875q0 -2.03125 1.125 -3.28125q1.140625 -1.25 2.671875 -1.25q1.0625 0 1.875 0.546875q0.8125 0.546875 1.75 2.28125zm1.1875 2.515625q0.921875 1.921875 1.828125 2.59375q0.90625 0.65625 2.03125 0.65625q1.515625 0 2.53125 -1.09375q1.03125 -1.09375 1.03125 -2.9375q0 -1.8125 -1.078125 -3.0q-1.078125 -1.1875 -2.421875 -1.1875q-0.84375 0 -1.484375 0.4375q-0.640625 0.421875 -1.15625 1.375q-0.296875 0.5625 -1.28125 3.15625zm-1.546875 -1.5625q-0.609375 -1.359375 -1.390625 -2.0q-0.78125 -0.640625 -1.921875 -0.640625q-1.296875 0 -2.1875 0.921875q-0.890625 0.921875 -0.890625 2.46875q0 1.640625 0.875 2.625q0.875 0.984375 1.96875 0.984375q1.1875 0 2.078125 -1.0625q0.59375 -0.6875 1.46875 -3.296875z" fill-rule="nonzero"/><path fill="#010000" fill-opacity="0.0" d="m69.75513 305.23807l0 0l0 21.45288l0 0l0 -21.45288z" fill-rule="nonzero"/><path fill="#000000" fill-opacity="0.0" d="m153.46194 288.8071l39.307083 0l0 50.078735l-39.307083 0z" fill-rule="evenodd"/><path fill="#222222" d="m173.10394 318.17395l-0.5 0q0.078125 -1.5625 0.375 -2.578125q0.3125 -1.03125 1.265625 -2.84375q0.75 -1.390625 0.96875 -2.140625q0.21875 -0.75 0.21875 -1.515625q0 -1.578125 -0.84375 -2.5q-0.828125 -0.921875 -2.03125 -0.921875q-1.078125 0 -1.703125 0.5q-0.609375 0.5 -0.609375 1.09375q0 0.46875 0.359375 1.140625q0.375 0.65625 0.375 1.0q0 0.453125 -0.28125 0.765625q-0.28125 0.296875 -0.6875 0.296875q-0.53125 0 -0.953125 -0.515625q-0.421875 -0.515625 -0.421875 -1.4375q0 -1.390625 1.1875 -2.46875q1.203125 -1.078125 3.265625 -1.078125q2.546875 0 3.75 1.484375q0.890625 1.09375 0.890625 2.421875q0 0.890625 -0.40625 1.84375q-0.40625 0.953125 -1.53125 2.234375q-1.796875 2.03125 -2.203125 2.890625q-0.390625 0.84375 -0.484375 2.328125zm-0.171875 1.53125q0.578125 0 0.984375 0.40625q0.40625 0.390625 0.40625 0.984375q0 0.5625 -0.40625 0.96875q-0.40625 0.390625 -0.984375 0.390625q-0.5625 0 -0.96875 -0.390625q-0.40625 -0.40625 -0.40625 -0.96875q0 -0.59375 0.40625 -0.984375q0.40625 -0.40625 0.96875 -0.40625z" fill-rule="nonzero"/><path fill="#010000" fill-opacity="0.0" d="m178.7364 305.23807l0 0l0 21.45288l0 0l0 -21.45288z" fill-rule="nonzero"/><path fill="#000000" fill-opacity="0.0" d="m97.267715 288.8071l39.307083 0l0 50.078735l-39.307083 0z" fill-rule="evenodd"/><path fill="#222222" d="m116.90971 318.17395l-0.5 0q0.078125 -1.5625 0.375 -2.578125q0.3125 -1.03125 1.265625 -2.84375q0.75 -1.390625 0.96875 -2.140625q0.21875 -0.75 0.21875 -1.515625q0 -1.578125 -0.84375 -2.5q-0.828125 -0.921875 -2.03125 -0.921875q-1.078125 0 -1.703125 0.5q-0.609375 0.5 -0.609375 1.09375q0 0.46875 0.359375 1.140625q0.375 0.65625 0.375 1.0q0 0.453125 -0.28125 0.765625q-0.28125 0.296875 -0.6875 0.296875q-0.53125 0 -0.953125 -0.515625q-0.421875 -0.515625 -0.421875 -1.4375q0 -1.390625 1.1875 -2.46875q1.203125 -1.078125 3.265625 -1.078125q2.546875 0 3.75 1.484375q0.890625 1.09375 0.890625 2.421875q0 0.890625 -0.40625 1.84375q-0.40625 0.953125 -1.53125 2.234375q-1.796875 2.03125 -2.203125 2.890625q-0.390625 0.84375 -0.484375 2.328125zm-0.171875 1.53125q0.578125 0 0.984375 0.40625q0.40625 0.390625 0.40625 0.984375q0 0.5625 -0.40625 0.96875q-0.40625 0.390625 -0.984375 0.390625q-0.5625 0 -0.96875 -0.390625q-0.40625 -0.40625 -0.40625 -0.96875q0 -0.59375 0.40625 -0.984375q0.40625 -0.40625 0.96875 -0.40625z" fill-rule="nonzero"/><path fill="#010000" fill-opacity="0.0" d="m122.542175 305.23807l0 0l0 21.45288l0 0l0 -21.45288z" fill-rule="nonzero"/><path fill="#cfe2f3" d="m173.11023 71.14567l0 0c0 -11.0978775 8.799194 -20.094486 19.65355 -20.094486l0 0c5.212448 0 10.211395 2.1170921 13.897156 5.88554c3.6857605 3.7684479 5.7563934 8.879555 5.7563934 14.208946l0 0c0 11.0978775 -8.799194 20.09449 -19.65355 20.09449l0 0c-10.854355 0 -19.65355 -8.996613 -19.65355 -20.09449z" fill-rule="evenodd"/><path stroke="#000000" stroke-width="1.0" stroke-linejoin="round" stroke-linecap="butt" d="m173.11023 71.14567l0 0c0 -11.0978775 8.799194 -20.094486 19.65355 -20.094486l0 0c5.212448 0 10.211395 2.1170921 13.897156 5.88554c3.6857605 3.7684479 5.7563934 8.879555 5.7563934 14.208946l0 0c0 11.0978775 -8.799194 20.09449 -19.65355 20.09449l0 0c-10.854355 0 -19.65355 -8.996613 -19.65355 -20.09449z" fill-rule="evenodd"/><path fill="#000000" fill-opacity="0.0" d="m192.76378 91.24016l-75.84252 93.22835" fill-rule="evenodd"/><path stroke="#000000" stroke-width="1.0" stroke-linejoin="round" stroke-linecap="butt" d="m192.76378 91.24016l-75.84252 93.22835" fill-rule="evenodd"/><path fill="#000000" fill-opacity="0.0" d="m89.75328 179.52362l49.637802 0l0 50.078735l-49.637802 0z" fill-rule="evenodd"/><path fill="#222222" d="m102.35811 206.23425l6.390625 0l0 1.859375l-6.390625 0l0 -1.859375zm15.4813385 -1.640625q0.84375 -1.921875 1.84375 -2.671875q1.0 -0.75 2.734375 -0.75q1.984375 0 3.359375 1.4375q1.375 1.421875 1.375 3.71875q0 2.265625 -1.34375 3.734375q-1.328125 1.453125 -2.984375 1.453125q-1.21875 0 -2.265625 -0.890625q-0.703125 -0.59375 -1.890625 -2.640625q-0.796875 1.53125 -1.734375 2.203125q-0.9375 0.671875 -2.28125 0.671875q-1.78125 0 -3.015625 -1.265625q-1.21875 -1.28125 -1.21875 -3.296875q0 -2.03125 1.125 -3.28125q1.140625 -1.25 2.671875 -1.25q1.0625 0 1.875 0.546875q0.8125 0.546875 1.75 2.28125zm1.1875 2.515625q0.921875 1.921875 1.828125 2.59375q0.90625 0.65625 2.03125 0.65625q1.515625 0 2.53125 -1.09375q1.03125 -1.09375 1.03125 -2.9375q0 -1.8125 -1.078125 -3.0q-1.078125 -1.1875 -2.421875 -1.1875q-0.84375 0 -1.484375 0.4375q-0.640625 0.421875 -1.15625 1.375q-0.296875 0.5625 -1.28125 3.15625zm-1.546875 -1.5625q-0.609375 -1.359375 -1.390625 -2.0q-0.78125 -0.640625 -1.921875 -0.640625q-1.296875 0 -2.1875 0.921875q-0.890625 0.921875 -0.890625 2.46875q0 1.640625 0.875 2.625q0.875 0.984375 1.96875 0.984375q1.1875 0 2.078125 -1.0625q0.59375 -0.6875 1.46875 -3.296875z" fill-rule="nonzero"/><path fill="#000000" fill-opacity="0.0" d="m127.817505 195.95462l0 0l0 21.452866l0 0l0 -21.452866z" fill-rule="nonzero"/><path fill="#cfe2f3" d="m243.7874 204.56299l0 0c0 -11.09787 8.799194 -20.094482 19.65355 -20.094482l0 0c5.212433 0 10.211395 2.117096 13.897156 5.885544c3.6857605 3.7684479 5.756378 8.879547 5.756378 14.208939l0 0c0 11.097885 -8.799194 20.094498 -19.653534 20.094498l0 0c-10.854355 0 -19.65355 -8.996613 -19.65355 -20.094498z" fill-rule="evenodd"/><path stroke="#000000" stroke-width="1.0" stroke-linejoin="round" stroke-linecap="butt" d="m243.7874 204.56299l0 0c0 -11.09787 8.799194 -20.094482 19.65355 -20.094482l0 0c5.212433 0 10.211395 2.117096 13.897156 5.885544c3.6857605 3.7684479 5.756378 8.879547 5.756378 14.208939l0 0c0 11.097885 -8.799194 20.094498 -19.653534 20.094498l0 0c-10.854355 0 -19.65355 -8.996613 -19.65355 -20.094498z" fill-rule="evenodd"/><path fill="#cfe2f3" d="m173.11023 204.56299l0 0c0 -11.09787 8.799194 -20.094482 19.65355 -20.094482l0 0c5.212448 0 10.211395 2.117096 13.897156 5.885544c3.6857605 3.7684479 5.7563934 8.879547 5.7563934 14.208939l0 0c0 11.097885 -8.799194 20.094498 -19.65355 20.094498l0 0c-10.854355 0 -19.65355 -8.996613 -19.65355 -20.094498z" fill-rule="evenodd"/><path stroke="#000000" stroke-width="1.0" stroke-linejoin="round" stroke-linecap="butt" d="m173.11023 204.56299l0 0c0 -11.09787 8.799194 -20.094482 19.65355 -20.094482l0 0c5.212448 0 10.211395 2.117096 13.897156 5.885544c3.6857605 3.7684479 5.7563934 8.879547 5.7563934 14.208939l0 0c0 11.097885 -8.799194 20.094498 -19.65355 20.094498l0 0c-10.854355 0 -19.65355 -8.996613 -19.65355 -20.094498z" fill-rule="evenodd"/><path fill="#000000" fill-opacity="0.0" d="m192.76378 91.24016l0 93.22835" fill-rule="evenodd"/><path stroke="#000000" stroke-width="1.0" stroke-linejoin="round" stroke-linecap="butt" d="m192.76378 91.24016l0 93.22835" fill-rule="evenodd"/><path fill="#000000" fill-opacity="0.0" d="m192.76378 91.24016l70.67717 93.22835" fill-rule="evenodd"/><path stroke="#000000" stroke-width="1.0" stroke-linejoin="round" stroke-linecap="butt" d="m192.76378 91.24016l70.67717 93.22835" fill-rule="evenodd"/><path fill="#000000" fill-opacity="0.0" d="m166.77034 179.52493l49.637802 0l0 50.078735l-49.637802 0z" fill-rule="evenodd"/><path fill="#222222" d="m179.37517 206.23557l6.390625 0l0 1.859375l-6.390625 0l0 -1.859375zm15.4813385 -1.640625q0.84375 -1.921875 1.84375 -2.671875q1.0 -0.75 2.734375 -0.75q1.984375 0 3.359375 1.4375q1.375 1.421875 1.375 3.71875q0 2.265625 -1.34375 3.734375q-1.328125 1.453125 -2.984375 1.453125q-1.21875 0 -2.265625 -0.890625q-0.703125 -0.59375 -1.890625 -2.640625q-0.796875 1.53125 -1.734375 2.203125q-0.9375 0.671875 -2.28125 0.671875q-1.78125 0 -3.015625 -1.265625q-1.21875 -1.28125 -1.21875 -3.296875q0 -2.03125 1.125 -3.28125q1.140625 -1.25 2.671875 -1.25q1.0625 0 1.875 0.546875q0.8125 0.546875 1.75 2.28125zm1.1875 2.515625q0.921875 1.921875 1.828125 2.59375q0.90625 0.65625 2.03125 0.65625q1.515625 0 2.53125 -1.09375q1.03125 -1.09375 1.03125 -2.9375q0 -1.8125 -1.078125 -3.0q-1.078125 -1.1875 -2.421875 -1.1875q-0.84375 0 -1.484375 0.4375q-0.640625 0.421875 -1.15625 1.375q-0.296875 0.5625 -1.28125 3.15625zm-1.546875 -1.5625q-0.609375 -1.359375 -1.390625 -2.0q-0.78125 -0.640625 -1.921875 -0.640625q-1.296875 0 -2.1875 0.921875q-0.890625 0.921875 -0.890625 2.46875q0 1.640625 0.875 2.625q0.875 0.984375 1.96875 0.984375q1.1875 0 2.078125 -1.0625q0.59375 -0.6875 1.46875 -3.296875z" fill-rule="nonzero"/><path fill="#010000" fill-opacity="0.0" d="m204.83456 195.95593l0 0l0 21.452866l0 0l0 -21.452866z" fill-rule="nonzero"/><path fill="#000000" fill-opacity="0.0" d="m236.37007 179.52362l49.637802 0l0 50.078735l-49.637802 0z" fill-rule="evenodd"/><path fill="#222222" d="m248.9749 206.23425l6.390625 0l0 1.859375l-6.390625 0l0 -1.859375zm15.4813385 -1.640625q0.84375 -1.921875 1.84375 -2.671875q1.0 -0.75 2.734375 -0.75q1.984375 0 3.359375 1.4375q1.375 1.421875 1.375 3.71875q0 2.265625 -1.34375 3.734375q-1.328125 1.453125 -2.984375 1.453125q-1.21875 0 -2.265625 -0.890625q-0.703125 -0.59375 -1.890625 -2.640625q-0.796875 1.53125 -1.734375 2.203125q-0.9375 0.671875 -2.28125 0.671875q-1.78125 0 -3.015625 -1.265625q-1.21875 -1.28125 -1.21875 -3.296875q0 -2.03125 1.125 -3.28125q1.140625 -1.25 2.671875 -1.25q1.0625 0 1.875 0.546875q0.8125 0.546875 1.75 2.28125zm1.1875 2.515625q0.921875 1.921875 1.828125 2.59375q0.90625 0.65625 2.03125 0.65625q1.515625 0 2.53125 -1.09375q1.03125 -1.09375 1.03125 -2.9375q0 -1.8125 -1.078125 -3.0q-1.078125 -1.1875 -2.421875 -1.1875q-0.84375 0 -1.484375 0.4375q-0.640625 0.421875 -1.15625 1.375q-0.296875 0.5625 -1.28125 3.15625zm-1.546875 -1.5625q-0.609375 -1.359375 -1.390625 -2.0q-0.78125 -0.640625 -1.921875 -0.640625q-1.296875 0 -2.1875 0.921875q-0.890625 0.921875 -0.890625 2.46875q0 1.640625 0.875 2.625q0.875 0.984375 1.96875 0.984375q1.1875 0 2.078125 -1.0625q0.59375 -0.6875 1.46875 -3.296875z" fill-rule="nonzero"/><path fill="#010000" fill-opacity="0.0" d="m274.4343 195.95462l0 0l0 21.452866l0 0l0 -21.452866z" fill-rule="nonzero"/><path fill="#000000" fill-opacity="0.0" d="m218.30708 97.00394l90.267715 0l0 35.55905l-90.267715 0z" fill-rule="evenodd"/><path fill="#000000" d="m228.27583 118.80394l0 -9.546875l3.59375 0q1.09375 0 1.75 0.296875q0.65625 0.28125 1.03125 0.890625q0.375 0.609375 0.375 1.265625q0 0.609375 -0.34375 1.15625q-0.328125 0.53125 -0.984375 0.859375q0.859375 0.25 1.328125 0.875q0.46875 0.609375 0.46875 1.4375q0 0.671875 -0.296875 1.25q-0.28125 0.578125 -0.703125 0.890625q-0.40625 0.3125 -1.03125 0.46875q-0.625 0.15625 -1.546875 0.15625l-3.640625 0zm1.265625 -5.53125l2.0625 0q0.84375 0 1.203125 -0.109375q0.484375 -0.140625 0.71875 -0.46875q0.25 -0.34375 0.25 -0.84375q0 -0.46875 -0.234375 -0.828125q-0.21875 -0.359375 -0.640625 -0.5q-0.421875 -0.140625 -1.453125 -0.140625l-1.90625 0l0 2.890625zm0 4.40625l2.375 0q0.609375 0 0.859375 -0.046875q0.4375 -0.078125 0.734375 -0.25q0.296875 -0.1875 0.484375 -0.53125q0.1875 -0.359375 0.1875 -0.8125q0 -0.53125 -0.28125 -0.921875q-0.265625 -0.40625 -0.75 -0.5625q-0.484375 -0.15625 -1.40625 -0.15625l-2.203125 0l0 3.28125zm12.046005 0.265625q-0.65625 0.5625 -1.265625 0.796875q-0.59375 0.21875 -1.28125 0.21875q-1.140625 0 -1.75 -0.546875q-0.609375 -0.5625 -0.609375 -1.4375q0 -0.5 0.21875 -0.921875q0.234375 -0.421875 0.609375 -0.671875q0.375 -0.25 0.84375 -0.390625q0.34375 -0.078125 1.046875 -0.171875q1.421875 -0.171875 2.09375 -0.40625q0 -0.234375 0 -0.296875q0 -0.71875 -0.328125 -1.015625q-0.453125 -0.390625 -1.34375 -0.390625q-0.8125 0 -1.21875 0.296875q-0.390625 0.28125 -0.578125 1.015625l-1.140625 -0.15625q0.15625 -0.734375 0.515625 -1.1875q0.359375 -0.453125 1.03125 -0.6875q0.671875 -0.25 1.5625 -0.25q0.890625 0 1.4375 0.203125q0.5625 0.203125 0.8125 0.53125q0.265625 0.3125 0.375 0.796875q0.046875 0.296875 0.046875 1.078125l0 1.5625q0 1.625 0.078125 2.0625q0.078125 0.4375 0.296875 0.828125l-1.21875 0q-0.1875 -0.359375 -0.234375 -0.859375zm-0.09375 -2.609375q-0.640625 0.265625 -1.921875 0.4375q-0.71875 0.109375 -1.015625 0.25q-0.296875 0.125 -0.46875 0.375q-0.15625 0.25 -0.15625 0.546875q0 0.46875 0.34375 0.78125q0.359375 0.3125 1.046875 0.3125q0.671875 0 1.203125 -0.296875q0.53125 -0.296875 0.78125 -0.8125q0.1875 -0.390625 0.1875 -1.171875l0 -0.421875zm7.5062256 0.9375l1.15625 0.15625q-0.1875 1.1875 -0.96875 1.859375q-0.78125 0.671875 -1.921875 0.671875q-1.40625 0 -2.28125 -0.921875q-0.859375 -0.9375 -0.859375 -2.65625q0 -1.125 0.375 -1.96875q0.375 -0.84375 1.125 -1.25q0.765625 -0.421875 1.65625 -0.421875q1.125 0 1.84375 0.578125q0.71875 0.5625 0.921875 1.609375l-1.140625 0.171875q-0.171875 -0.703125 -0.59375 -1.046875q-0.40625 -0.359375 -0.984375 -0.359375q-0.890625 0 -1.453125 0.640625q-0.546875 0.640625 -0.546875 2.0q0 1.40625 0.53125 2.03125q0.546875 0.625 1.40625 0.625q0.6875 0 1.140625 -0.421875q0.46875 -0.421875 0.59375 -1.296875zm2.1640625 2.53125l0 -9.546875l1.171875 0l0 5.453125l2.765625 -2.8125l1.515625 0l-2.640625 2.5625l2.90625 4.34375l-1.4375 0l-2.28125 -3.53125l-0.828125 0.796875l0 2.734375l-1.171875 0zm6.6484375 2.65625l0 -9.5625l1.078125 0l0 0.890625q0.375 -0.53125 0.84375 -0.78125q0.484375 -0.265625 1.15625 -0.265625q0.875 0 1.546875 0.453125q0.6875 0.453125 1.03125 1.28125q0.34375 0.828125 0.34375 1.828125q0 1.046875 -0.375 1.90625q-0.375 0.84375 -1.109375 1.296875q-0.71875 0.453125 -1.53125 0.453125q-0.578125 0 -1.046875 -0.25q-0.46875 -0.25 -0.765625 -0.625l0 3.375l-1.171875 0zm1.0625 -6.078125q0 1.34375 0.53125 1.984375q0.546875 0.625 1.3125 0.625q0.78125 0 1.34375 -0.65625q0.5625 -0.65625 0.5625 -2.046875q0 -1.3125 -0.546875 -1.96875q-0.546875 -0.671875 -1.296875 -0.671875q-0.75 0 -1.328125 0.703125q-0.578125 0.703125 -0.578125 2.03125zm6.3343506 3.421875l0 -6.90625l1.0625 0l0 1.046875q0.40625 -0.734375 0.734375 -0.96875q0.34375 -0.234375 0.765625 -0.234375q0.59375 0 1.203125 0.375l-0.40625 1.078125q-0.4375 -0.25 -0.859375 -0.25q-0.390625 0 -0.703125 0.234375q-0.296875 0.234375 -0.421875 0.640625q-0.203125 0.625 -0.203125 1.359375l0 3.625l-1.171875 0zm4.01651 -3.453125q0 -1.921875 1.078125 -2.84375q0.890625 -0.765625 2.171875 -0.765625q1.421875 0 2.328125 0.9375q0.90625 0.921875 0.90625 2.578125q0 1.328125 -0.40625 2.09375q-0.390625 0.765625 -1.15625 1.1875q-0.765625 0.421875 -1.671875 0.421875q-1.453125 0 -2.359375 -0.921875q-0.890625 -0.9375 -0.890625 -2.6875zm1.203125 0q0 1.328125 0.578125 1.984375q0.59375 0.65625 1.46875 0.65625q0.875 0 1.453125 -0.65625q0.578125 -0.671875 0.578125 -2.03125q0 -1.28125 -0.59375 -1.9375q-0.578125 -0.65625 -1.4375 -0.65625q-0.875 0 -1.46875 0.65625q-0.578125 0.65625 -0.578125 1.984375zm6.6468506 6.109375l0 -9.5625l1.078125 0l0 0.890625q0.375 -0.53125 0.84375 -0.78125q0.484375 -0.265625 1.15625 -0.265625q0.875 0 1.546875 0.453125q0.6875 0.453125 1.03125 1.28125q0.34375 0.828125 0.34375 1.828125q0 1.046875 -0.375 1.90625q-0.375 0.84375 -1.109375 1.296875q-0.71875 0.453125 -1.53125 0.453125q-0.578125 0 -1.046875 -0.25q-0.46875 -0.25 -0.765625 -0.625l0 3.375l-1.171875 0zm1.0625 -6.078125q0 1.34375 0.53125 1.984375q0.546875 0.625 1.3125 0.625q0.78125 0 1.34375 -0.65625q0.5625 -0.65625 0.5625 -2.046875q0 -1.3125 -0.546875 -1.96875q-0.546875 -0.671875 -1.296875 -0.671875q-0.75 0 -1.328125 0.703125q-0.578125 0.703125 -0.578125 2.03125z" fill-rule="nonzero"/><path fill="#000000" fill-opacity="0.0" d="m173.11023 44.492126l39.3071 0l0 50.078743l-39.3071 0z" fill-rule="evenodd"/><path fill="#222222" d="m191.81381 69.562126q0.84375 -1.921875 1.84375 -2.671875q1.0 -0.75 2.734375 -0.75q1.984375 0 3.359375 1.4375q1.375 1.421875 1.375 3.71875q0 2.265625 -1.34375 3.734375q-1.328125 1.453125 -2.984375 1.453125q-1.21875 0 -2.265625 -0.890625q-0.703125 -0.59375 -1.890625 -2.640625q-0.796875 1.53125 -1.734375 2.203125q-0.9375 0.671875 -2.28125 0.671875q-1.78125 0 -3.015625 -1.265625q-1.21875 -1.28125 -1.21875 -3.296875q0 -2.03125 1.125 -3.28125q1.140625 -1.25 2.671875 -1.25q1.0625 0 1.875 0.546875q0.8125 0.546875 1.75 2.28125zm1.1875 2.515625q0.921875 1.921875 1.828125 2.59375q0.90625 0.65625 2.03125 0.65625q1.515625 0 2.53125 -1.09375q1.03125 -1.09375 1.03125 -2.9375q0 -1.8125 -1.078125 -3.0q-1.078125 -1.1875 -2.421875 -1.1875q-0.84375 0 -1.484375 0.4375q-0.640625 0.421875 -1.15625 1.375q-0.296875 0.5625 -1.28125 3.15625zm-1.546875 -1.5625q-0.609375 -1.359375 -1.390625 -2.0q-0.78125 -0.640625 -1.921875 -0.640625q-1.296875 0 -2.1875 0.921875q-0.890625 0.921875 -0.890625 2.46875q0 1.640625 0.875 2.625q0.875 0.984375 1.96875 0.984375q1.1875 0 2.078125 -1.0625q0.59375 -0.6875 1.46875 -3.296875z" fill-rule="nonzero"/><path fill="#010000" fill-opacity="0.0" d="m201.79187 60.92312l0 0l0 21.452866l0 0l0 -21.452866z" fill-rule="nonzero"/><path fill="#000000" fill-opacity="0.0" d="m1.2204725 333.94095l109.41732 0l0 51.716522l-109.41732 0z" fill-rule="evenodd"/><path fill="#000000" d="m14.90645 355.74094l-2.53125 -9.546875l1.296875 0l1.453125 6.265625q0.234375 0.984375 0.40625 1.953125q0.359375 -1.53125 0.421875 -1.765625l1.828125 -6.453125l1.515625 0l1.375 4.828125q0.515625 1.796875 0.734375 3.390625q0.1875 -0.90625 0.484375 -2.078125l1.484375 -6.140625l1.28125 0l-2.625 9.546875l-1.21875 0l-2.0 -7.265625q-0.265625 -0.921875 -0.3125 -1.125q-0.140625 0.65625 -0.28125 1.125l-2.015625 7.265625l-1.296875 0zm10.782852 -8.1875l0 -1.359375l1.171875 0l0 1.359375l-1.171875 0zm0 8.1875l0 -6.90625l1.171875 0l0 6.90625l-1.171875 0zm2.945465 0l0 -6.90625l1.0625 0l0 0.984375q0.75 -1.140625 2.1875 -1.140625q0.6250019 0 1.1562519 0.21875q0.53125 0.21875 0.78125 0.59375q0.265625 0.359375 0.375 0.859375q0.0625 0.328125 0.0625 1.140625l0 4.25l-1.171875 0l0 -4.203125q0 -0.71875 -0.140625 -1.0625q-0.140625 -0.359375 -0.484375 -0.5625q-0.34375 -0.21875 -0.8125019 -0.21875q-0.75 0 -1.296875 0.46875q-0.546875 0.46875 -0.546875 1.796875l0 3.78125l-1.171875 0zm7.4124775 0l0 -6.90625l1.0625 0l0 0.984375q0.75 -1.140625 2.1875 -1.140625q0.625 0 1.15625 0.21875q0.53125 0.21875 0.78125 0.59375q0.265625 0.359375 0.375 0.859375q0.0625 0.328125 0.0625 1.140625l0 4.25l-1.171875 0l0 -4.203125q0 -0.71875 -0.140625 -1.0625q-0.140625 -0.359375 -0.484375 -0.5625q-0.34375 -0.21875 -0.8125 -0.21875q-0.75 0 -1.296875 0.46875q-0.546875 0.46875 -0.546875 1.796875l0 3.78125l-1.171875 0zm7.4281006 -8.1875l0 -1.359375l1.171875 0l0 1.359375l-1.171875 0zm0 8.1875l0 -6.90625l1.171875 0l0 6.90625l-1.171875 0zm2.945465 0l0 -6.90625l1.0625 0l0 0.984375q0.75 -1.140625 2.1875 -1.140625q0.625 0 1.15625 0.21875q0.53125 0.21875 0.78125 0.59375q0.265625 0.359375 0.375 0.859375q0.0625 0.328125 0.0625 1.140625l0 4.25l-1.171875 0l0 -4.203125q0 -0.71875 -0.140625 -1.0625q-0.140625 -0.359375 -0.484375 -0.5625q-0.34375 -0.21875 -0.8125 -0.21875q-0.75 0 -1.296875 0.46875q-0.546875 0.46875 -0.546875 1.796875l0 3.78125l-1.171875 0zm7.1937256 0.578125l1.140625 0.15625q0.078125 0.53125 0.40625 0.78125q0.4375 0.3125 1.1875 0.3125q0.8125 0 1.25 -0.328125q0.453125 -0.3125 0.609375 -0.90625q0.09375 -0.359375 0.078125 -1.5q-0.765625 0.90625 -1.90625 0.90625q-1.4375 0 -2.21875 -1.03125q-0.78125 -1.03125 -0.78125 -2.46875q0 -0.984375 0.359375 -1.8125q0.359375 -0.84375 1.03125 -1.296875q0.6875 -0.453125 1.609375 -0.453125q1.21875 0 2.015625 0.984375l0 -0.828125l1.078125 0l0 5.96875q0 1.609375 -0.328125 2.28125q-0.328125 0.6875 -1.046875 1.078125q-0.703125 0.390625 -1.75 0.390625q-1.234375 0 -2.0 -0.5625q-0.75 -0.5625 -0.734375 -1.671875zm0.984375 -4.15625q0 1.359375 0.53125 1.984375q0.546875 0.625 1.359375 0.625q0.796875 0 1.34375 -0.625q0.546875 -0.625 0.546875 -1.953125q0 -1.265625 -0.5625 -1.90625q-0.5625 -0.640625 -1.359375 -0.640625q-0.765625 0 -1.3125 0.640625q-0.546875 0.625 -0.546875 1.875zm14.865459 2.71875q-0.65625 0.5625 -1.265625 0.796875q-0.59375 0.21875 -1.28125 0.21875q-1.140625 0 -1.75 -0.546875q-0.609375 -0.5625 -0.609375 -1.4375q0 -0.5 0.21875 -0.921875q0.234375 -0.421875 0.609375 -0.671875q0.375 -0.25 0.84375 -0.390625q0.34375 -0.078125 1.046875 -0.171875q1.421875 -0.171875 2.09375 -0.40625q0 -0.234375 0 -0.296875q0 -0.71875 -0.328125 -1.015625q-0.453125 -0.390625 -1.34375 -0.390625q-0.8125 0 -1.21875 0.296875q-0.390625 0.28125 -0.578125 1.015625l-1.140625 -0.15625q0.15625 -0.734375 0.515625 -1.1875q0.359375 -0.453125 1.03125 -0.6875q0.671875 -0.25 1.5625 -0.25q0.890625 0 1.4375 0.203125q0.5625 0.203125 0.8125 0.53125q0.265625 0.3125 0.375 0.796875q0.046875 0.296875 0.046875 1.078125l0 1.5625q0 1.625 0.078125 2.0625q0.078125 0.4375 0.296875 0.828125l-1.21875 0q-0.1875 -0.359375 -0.234375 -0.859375zm-0.09375 -2.609375q-0.640625 0.265625 -1.921875 0.4375q-0.71875 0.109375 -1.015625 0.25q-0.296875 0.125 -0.46875 0.375q-0.15625 0.25 -0.15625 0.546875q0 0.46875 0.34375 0.78125q0.359375 0.3125 1.046875 0.3125q0.671875 0 1.203125 -0.296875q0.53125 -0.296875 0.78125 -0.8125q0.1875 -0.390625 0.1875 -1.171875l0 -0.421875zm7.5062256 0.9375l1.15625 0.15625q-0.1875 1.1875 -0.96875 1.859375q-0.78125 0.671875 -1.921875 0.671875q-1.40625 0 -2.28125 -0.921875q-0.859375 -0.9375 -0.859375 -2.65625q0 -1.125 0.375 -1.96875q0.375 -0.84375 1.125 -1.25q0.765625 -0.421875 1.65625 -0.421875q1.125 0 1.84375 0.578125q0.71875 0.5625 0.921875 1.609375l-1.140625 0.171875q-0.171875 -0.703125 -0.59375 -1.046875q-0.40625 -0.359375 -0.984375 -0.359375q-0.890625 0 -1.453125 0.640625q-0.546875 0.640625 -0.546875 2.0q0 1.40625 0.53125 2.03125q0.546875 0.625 1.40625 0.625q0.6875 0 1.140625 -0.421875q0.46875 -0.421875 0.59375 -1.296875zm4.7109375 1.484375l0.171875 1.03125q-0.5 0.109375 -0.890625 0.109375q-0.640625 0 -1.0 -0.203125q-0.34375 -0.203125 -0.484375 -0.53125q-0.140625 -0.328125 -0.140625 -1.390625l0 -3.96875l-0.859375 0l0 -0.90625l0.859375 0l0 -1.71875l1.171875 -0.703125l0 2.421875l1.171875 0l0 0.90625l-1.171875 0l0 4.046875q0 0.5 0.046875 0.640625q0.0625 0.140625 0.203125 0.234375q0.140625 0.078125 0.40625 0.078125q0.203125 0 0.515625 -0.046875zm1.1561127 -7.140625l0 -1.359375l1.171875 0l0 1.359375l-1.171875 0zm0 8.1875l0 -6.90625l1.171875 0l0 6.90625l-1.171875 0zm2.507965 -3.453125q0 -1.921875 1.078125 -2.84375q0.890625 -0.765625 2.171875 -0.765625q1.421875 0 2.328125 0.9375q0.90625 0.921875 0.90625 2.578125q0 1.328125 -0.40625 2.09375q-0.390625 0.765625 -1.15625 1.1875q-0.765625 0.421875 -1.671875 0.421875q-1.453125 0 -2.359375 -0.921875q-0.890625 -0.9375 -0.890625 -2.6875zm1.203125 0q0 1.328125 0.578125 1.984375q0.59375 0.65625 1.46875 0.65625q0.875 0 1.453125 -0.65625q0.578125 -0.671875 0.578125 -2.03125q0 -1.28125 -0.59375 -1.9375q-0.578125 -0.65625 -1.4375 -0.65625q-0.875 0 -1.46875 0.65625q-0.578125 0.65625 -0.578125 1.984375zm6.6468506 3.453125l0 -6.90625l1.0625 0l0 0.984375q0.75 -1.140625 2.1875 -1.140625q0.625 0 1.15625 0.21875q0.53125 0.21875 0.78125 0.59375q0.265625 0.359375 0.375 0.859375q0.0625 0.328125 0.0625 1.140625l0 4.25l-1.171875 0l0 -4.203125q0 -0.71875 -0.140625 -1.0625q-0.140625 -0.359375 -0.484375 -0.5625q-0.34375 -0.21875 -0.8125 -0.21875q-0.75 0 -1.296875 0.46875q-0.546875 0.46875 -0.546875 1.796875l0 3.78125l-1.171875 0z" fill-rule="nonzero"/><path fill="#000000" d="m28.561342 371.74094l0 -6.0l-1.03125 0l0 -0.90625l1.03125 0l0 -0.734375q0 -0.703125 0.125 -1.046875q0.171875 -0.453125 0.59375 -0.734375q0.421875 -0.28125 1.203125 -0.28125q0.484375 0 1.09375 0.109375l-0.1875 1.03125q-0.359375 -0.0625 -0.6875 -0.0625q-0.53125 0 -0.75 0.234375q-0.21875 0.21875 -0.21875 0.84375l0 0.640625l1.34375 0l0 0.90625l-1.34375 0l0 6.0l-1.171875 0zm2.9842377 -3.453125q0 -1.921875 1.0781269 -2.84375q0.890625 -0.765625 2.171875 -0.765625q1.421875 0 2.328125 0.9375q0.90625 0.921875 0.90625 2.578125q0 1.328125 -0.40625 2.09375q-0.390625 0.765625 -1.15625 1.1875q-0.765625 0.421875 -1.671875 0.421875q-1.453125 0 -2.359375 -0.921875q-0.8906269 -0.9375 -0.8906269 -2.6875zm1.2031269 0q0 1.328125 0.578125 1.984375q0.59375 0.65625 1.46875 0.65625q0.875 0 1.453125 -0.65625q0.578125 -0.671875 0.578125 -2.03125q0 -1.28125 -0.59375 -1.9375q-0.578125 -0.65625 -1.4375 -0.65625q-0.875 0 -1.46875 0.65625q-0.578125 0.65625 -0.578125 1.984375zm6.6312256 3.453125l0 -6.90625l1.0625 0l0 1.046875q0.40625 -0.734375 0.734375 -0.96875q0.34375 -0.234375 0.765625 -0.234375q0.59375 0 1.203125 0.375l-0.40625 1.078125q-0.4375 -0.25 -0.859375 -0.25q-0.390625 0 -0.703125 0.234375q-0.296875 0.234375 -0.421875 0.640625q-0.203125 0.625 -0.203125 1.359375l0 3.625l-1.171875 0zm8.156982 2.65625l0 -9.5625l1.078125 0l0 0.890625q0.375 -0.53125 0.84375 -0.78125q0.484375 -0.265625 1.15625 -0.265625q0.875 0 1.546875 0.453125q0.6875 0.453125 1.03125 1.28125q0.34375 0.828125 0.34375 1.828125q0 1.046875 -0.375 1.90625q-0.375 0.84375 -1.109375 1.296875q-0.71875 0.453125 -1.53125 0.453125q-0.578125 0 -1.046875 -0.25q-0.46875 -0.25 -0.765625 -0.625l0 3.375l-1.171875 0zm1.0625 -6.078125q0 1.34375 0.53125 1.984375q0.546875 0.625 1.3125 0.625q0.78125 0 1.34375 -0.65625q0.5625 -0.65625 0.5625 -2.046875q0 -1.3125 -0.546875 -1.96875q-0.546875 -0.671875 -1.296875 -0.671875q-0.75 0 -1.328125 0.703125q-0.578125 0.703125 -0.578125 2.03125zm10.865601 2.5625q-0.65625 0.5625 -1.265625 0.796875q-0.59375 0.21875 -1.28125 0.21875q-1.140625 0 -1.75 -0.546875q-0.609375 -0.5625 -0.609375 -1.4375q0 -0.5 0.21875 -0.921875q0.234375 -0.421875 0.609375 -0.671875q0.375 -0.25 0.84375 -0.390625q0.34375 -0.078125 1.046875 -0.171875q1.421875 -0.171875 2.09375 -0.40625q0 -0.234375 0 -0.296875q0 -0.71875 -0.328125 -1.015625q-0.453125 -0.390625 -1.34375 -0.390625q-0.8125 0 -1.21875 0.296875q-0.390625 0.28125 -0.578125 1.015625l-1.140625 -0.15625q0.15625 -0.734375 0.515625 -1.1875q0.359375 -0.453125 1.03125 -0.6875q0.671875 -0.25 1.5625 -0.25q0.890625 0 1.4375 0.203125q0.5625 0.203125 0.8125 0.53125q0.265625 0.3125 0.375 0.796875q0.046875 0.296875 0.046875 1.078125l0 1.5625q0 1.625 0.078125 2.0625q0.078125 0.4375 0.296875 0.828125l-1.21875 0q-0.1875 -0.359375 -0.234375 -0.859375zm-0.09375 -2.609375q-0.640625 0.265625 -1.921875 0.4375q-0.71875 0.109375 -1.015625 0.25q-0.296875 0.125 -0.46875 0.375q-0.15625 0.25 -0.15625 0.546875q0 0.46875 0.34375 0.78125q0.359375 0.3125 1.046875 0.3125q0.671875 0 1.203125 -0.296875q0.53125 -0.296875 0.78125 -0.8125q0.1875 -0.390625 0.1875 -1.171875l0 -0.421875zm2.9749756 3.46875l0 -6.90625l1.0625 0l0 1.046875q0.40625 -0.734375 0.7343712 -0.96875q0.34375 -0.234375 0.765625 -0.234375q0.59375 0 1.203125 0.375l-0.40625 1.078125q-0.4375 -0.25 -0.859375 -0.25q-0.390625 0 -0.703125 0.234375q-0.2968712 0.234375 -0.4218712 0.640625q-0.203125 0.625 -0.203125 1.359375l0 3.625l-1.171875 0zm9.188366 -2.21875l1.203125 0.140625q-0.28125 1.0625 -1.0625 1.65625q-0.765625 0.578125 -1.96875 0.578125q-1.515625 0 -2.40625 -0.9375q-0.890625 -0.9375 -0.890625 -2.609375q0 -1.75 0.890625 -2.703125q0.90625 -0.96875 2.34375 -0.96875q1.390625 0 2.265625 0.9375q0.875 0.9375 0.875 2.65625q0 0.109375 0 0.3125l-5.15625 0q0.0625 1.140625 0.640625 1.75q0.578125 0.59375 1.4375 0.59375q0.65625 0 1.109375 -0.328125q0.453125 -0.34375 0.71875 -1.078125zm-3.84375 -1.90625l3.859375 0q-0.078125 -0.859375 -0.4375 -1.296875q-0.5625 -0.6875 -1.453125 -0.6875q-0.8125 0 -1.359375 0.546875q-0.546875 0.53125 -0.609375 1.4375zm6.5218506 4.125l0 -6.90625l1.0625 0l0 0.984375q0.75 -1.140625 2.1875 -1.140625q0.625 0 1.15625 0.21875q0.53125 0.21875 0.78125 0.59375q0.265625 0.359375 0.375 0.859375q0.0625 0.328125 0.0625 1.140625l0 4.25l-1.171875 0l0 -4.203125q0 -0.71875 -0.140625 -1.0625q-0.140625 -0.359375 -0.484375 -0.5625q-0.34375 -0.21875 -0.8125 -0.21875q-0.75 0 -1.296875 0.46875q-0.546875 0.46875 -0.546875 1.796875l0 3.78125l-1.171875 0zm9.974976 -1.046875l0.171875 1.03125q-0.5 0.109375 -0.890625 0.109375q-0.640625 0 -1.0 -0.203125q-0.34375 -0.203125 -0.484375 -0.53125q-0.140625 -0.328125 -0.140625 -1.390625l0 -3.96875l-0.859375 0l0 -0.90625l0.859375 0l0 -1.71875l1.171875 -0.703125l0 2.421875l1.171875 0l0 0.90625l-1.171875 0l0 4.046875q0 0.5 0.046875 0.640625q0.0625 0.140625 0.203125 0.234375q0.140625 0.078125 0.40625 0.078125q0.203125 0 0.515625 -0.046875z" fill-rule="nonzero"/><path fill="#000000" fill-opacity="0.0" d="m63.692913 45.287403l109.41731 0l0 51.716534l-109.41731 0z" fill-rule="evenodd"/><path fill="#000000" d="m77.37889 67.0874l-2.53125 -9.546875l1.296875 0l1.453125 6.265625q0.234375 0.984375 0.40625 1.953125q0.359375 -1.53125 0.421875 -1.765625l1.828125 -6.453125l1.515625 0l1.375 4.828125q0.515625 1.796875 0.734375 3.390625q0.1875 -0.90625 0.484375 -2.078125l1.484375 -6.140625l1.28125 0l-2.625 9.546875l-1.21875 0l-2.0 -7.265625q-0.265625 -0.921875 -0.3125 -1.125q-0.140625 0.65625 -0.28125 1.125l-2.015625 7.265625l-1.296875 0zm10.782852 -8.1875l0 -1.359375l1.171875 0l0 1.359375l-1.171875 0zm0 8.1875l0 -6.90625l1.171875 0l0 6.90625l-1.171875 0zm2.945465 0l0 -6.90625l1.0625 0l0 0.984375q0.75 -1.140625 2.1875 -1.140625q0.625 0 1.15625 0.21875q0.53125 0.21875 0.78125 0.59375q0.265625 0.359375 0.375 0.859375q0.0625 0.328125 0.0625 1.140625l0 4.25l-1.171875 0l0 -4.203125q0 -0.71875 -0.140625 -1.0625q-0.140625 -0.359375 -0.484375 -0.5625q-0.34375 -0.21875 -0.8125 -0.21875q-0.75 0 -1.296875 0.46875q-0.546875 0.46875 -0.546875 1.796875l0 3.78125l-1.171875 0zm7.4124756 0l0 -6.90625l1.0625 0l0 0.984375q0.75 -1.140625 2.1875 -1.140625q0.625 0 1.15625 0.21875q0.53125 0.21875 0.78125 0.59375q0.265625 0.359375 0.375 0.859375q0.0625 0.328125 0.0625 1.140625l0 4.25l-1.171875 0l0 -4.203125q0 -0.71875 -0.140625 -1.0625q-0.140625 -0.359375 -0.484375 -0.5625q-0.34375 -0.21875 -0.8125 -0.21875q-0.75 0 -1.296875 0.46875q-0.546875 0.46875 -0.546875 1.796875l0 3.78125l-1.171875 0zm7.4281006 -8.1875l0 -1.359375l1.171875 0l0 1.359375l-1.171875 0zm0 8.1875l0 -6.90625l1.171875 0l0 6.90625l-1.171875 0zm2.945465 0l0 -6.90625l1.0625 0l0 0.984375q0.75 -1.140625 2.1875 -1.140625q0.625 0 1.15625 0.21875q0.53125 0.21875 0.78125 0.59375q0.265625 0.359375 0.375 0.859375q0.0625 0.328125 0.0625 1.140625l0 4.25l-1.171875 0l0 -4.203125q0 -0.71875 -0.140625 -1.0625q-0.140625 -0.359375 -0.484375 -0.5625q-0.34375 -0.21875 -0.8125 -0.21875q-0.75 0 -1.296875 0.46875q-0.546875 0.46875 -0.546875 1.796875l0 3.78125l-1.171875 0zm7.1937256 0.578125l1.140625 0.15625q0.078125 0.53125 0.40625 0.78125q0.4375 0.3125 1.1875 0.3125q0.8125 0 1.25 -0.328125q0.453125 -0.3125 0.609375 -0.90625q0.09375 -0.359375 0.078125 -1.5q-0.765625 0.90625 -1.90625 0.90625q-1.4375 0 -2.21875 -1.03125q-0.78125 -1.03125 -0.78125 -2.46875q0 -0.984375 0.359375 -1.8125q0.359375 -0.84375 1.03125 -1.296875q0.6875 -0.453125 1.609375 -0.453125q1.21875 0 2.015625 0.984375l0 -0.828125l1.078125 0l0 5.96875q0 1.609375 -0.328125 2.28125q-0.328125 0.6875 -1.046875 1.078125q-0.703125 0.390625 -1.75 0.390625q-1.234375 0 -2.0 -0.5625q-0.75 -0.5625 -0.734375 -1.671875zm0.984375 -4.15625q0 1.359375 0.53125 1.984375q0.546875 0.625 1.359375 0.625q0.796875 0 1.34375 -0.625q0.546875 -0.625 0.546875 -1.953125q0 -1.265625 -0.5625 -1.90625q-0.5625 -0.640625 -1.359375 -0.640625q-0.765625 0 -1.3125 0.640625q-0.546875 0.625 -0.546875 1.875zm14.865463 2.71875q-0.65625 0.5625 -1.265625 0.796875q-0.59375 0.21875 -1.28125 0.21875q-1.140625 0 -1.75 -0.546875q-0.609375 -0.5625 -0.609375 -1.4375q0 -0.5 0.21875 -0.921875q0.234375 -0.421875 0.609375 -0.671875q0.375 -0.25 0.84375 -0.390625q0.34375 -0.078125 1.046875 -0.171875q1.421875 -0.171875 2.09375 -0.40625q0 -0.234375 0 -0.296875q0 -0.71875 -0.328125 -1.015625q-0.453125 -0.390625 -1.34375 -0.390625q-0.8125 0 -1.21875 0.296875q-0.390625 0.28125 -0.578125 1.015625l-1.140625 -0.15625q0.15625 -0.734375 0.515625 -1.1875q0.359375 -0.453125 1.03125 -0.6875q0.671875 -0.25 1.5625 -0.25q0.890625 0 1.4375 0.203125q0.5625 0.203125 0.8125 0.53125q0.265625 0.3125 0.375 0.796875q0.046875 0.296875 0.046875 1.078125l0 1.5625q0 1.625 0.078125 2.0625q0.078125 0.4375 0.296875 0.828125l-1.21875 0q-0.1875 -0.359375 -0.234375 -0.859375zm-0.09375 -2.609375q-0.640625 0.265625 -1.921875 0.4375q-0.71875 0.109375 -1.015625 0.25q-0.296875 0.125 -0.46875 0.375q-0.15625 0.25 -0.15625 0.546875q0 0.46875 0.34375 0.78125q0.359375 0.3125 1.046875 0.3125q0.671875 0 1.203125 -0.296875q0.53125 -0.296875 0.78125 -0.8125q0.1875 -0.390625 0.1875 -1.171875l0 -0.421875zm7.5062256 0.9375l1.15625 0.15625q-0.1875 1.1875 -0.96875 1.859375q-0.78125 0.671875 -1.921875 0.671875q-1.40625 0 -2.28125 -0.921875q-0.859375 -0.9375 -0.859375 -2.65625q0 -1.125 0.375 -1.96875q0.375 -0.84375 1.125 -1.25q0.765625 -0.421875 1.65625 -0.421875q1.125 0 1.84375 0.578125q0.71875 0.5625 0.921875 1.609375l-1.140625 0.171875q-0.171875 -0.703125 -0.59375 -1.046875q-0.40625 -0.359375 -0.984375 -0.359375q-0.890625 0 -1.453125 0.640625q-0.546875 0.640625 -0.546875 2.0q0 1.40625 0.53125 2.03125q0.546875 0.625 1.40625 0.625q0.6875 0 1.140625 -0.421875q0.46875 -0.421875 0.59375 -1.296875zm4.7109375 1.484375l0.171875 1.03125q-0.5 0.109375 -0.890625 0.109375q-0.640625 0 -1.0 -0.203125q-0.34375 -0.203125 -0.484375 -0.53125q-0.140625 -0.328125 -0.140625 -1.390625l0 -3.96875l-0.859375 0l0 -0.90625l0.859375 0l0 -1.71875l1.171875 -0.703125l0 2.421875l1.171875 0l0 0.90625l-1.171875 0l0 4.046875q0 0.5 0.046875 0.640625q0.0625 0.140625 0.203125 0.234375q0.140625 0.078125 0.40625 0.078125q0.203125 0 0.515625 -0.046875zm1.1561127 -7.140625l0 -1.359375l1.171875 0l0 1.359375l-1.171875 0zm0 8.1875l0 -6.90625l1.171875 0l0 6.90625l-1.171875 0zm2.507965 -3.453125q0 -1.921875 1.078125 -2.84375q0.890625 -0.765625 2.171875 -0.765625q1.421875 0 2.328125 0.9375q0.90625 0.921875 0.90625 2.578125q0 1.328125 -0.40625 2.09375q-0.390625 0.765625 -1.15625 1.1875q-0.765625 0.421875 -1.671875 0.421875q-1.453125 0 -2.359375 -0.921875q-0.890625 -0.9375 -0.890625 -2.6875zm1.203125 0q0 1.328125 0.578125 1.984375q0.59375 0.65625 1.46875 0.65625q0.875 0 1.453125 -0.65625q0.578125 -0.671875 0.578125 -2.03125q0 -1.28125 -0.59375 -1.9375q-0.578125 -0.65625 -1.4375 -0.65625q-0.875 0 -1.46875 0.65625q-0.578125 0.65625 -0.578125 1.984375zm6.6468506 3.453125l0 -6.90625l1.0625 0l0 0.984375q0.75 -1.140625 2.1875 -1.140625q0.625 0 1.15625 0.21875q0.53125 0.21875 0.78125 0.59375q0.265625 0.359375 0.375 0.859375q0.0625 0.328125 0.0625 1.140625l0 4.25l-1.171875 0l0 -4.203125q0 -0.71875 -0.140625 -1.0625q-0.140625 -0.359375 -0.484375 -0.5625q-0.34375 -0.21875 -0.8125 -0.21875q-0.75 0 -1.296875 0.46875q-0.546875 0.46875 -0.546875 1.796875l0 3.78125l-1.171875 0z" fill-rule="nonzero"/><path fill="#000000" d="m91.03378 83.0874l0 -6.0l-1.03125 0l0 -0.90625l1.03125 0l0 -0.734375q0 -0.703125 0.125 -1.046875q0.171875 -0.453125 0.59375 -0.734375q0.421875 -0.28125 1.203125 -0.28125q0.484375 0 1.09375 0.109375l-0.1875 1.03125q-0.359375 -0.0625 -0.6875 -0.0625q-0.53125 0 -0.75 0.234375q-0.21875 0.21875 -0.21875 0.84375l0 0.640625l1.34375 0l0 0.90625l-1.34375 0l0 6.0l-1.171875 0zm2.9842377 -3.453125q0 -1.921875 1.078125 -2.84375q0.890625 -0.765625 2.171875 -0.765625q1.421875 0 2.328125 0.9375q0.90625 0.921875 0.90625 2.578125q0 1.328125 -0.40625 2.09375q-0.390625 0.765625 -1.15625 1.1875q-0.765625 0.421875 -1.671875 0.421875q-1.453125 0 -2.359375 -0.921875q-0.890625 -0.9375 -0.890625 -2.6875zm1.203125 0q0 1.328125 0.578125 1.984375q0.59375 0.65625 1.46875 0.65625q0.875 0 1.453125 -0.65625q0.578125 -0.671875 0.578125 -2.03125q0 -1.28125 -0.59375 -1.9375q-0.578125 -0.65625 -1.4375 -0.65625q-0.875 0 -1.46875 0.65625q-0.578125 0.65625 -0.578125 1.984375zm6.6312256 3.453125l0 -6.90625l1.0625 0l0 1.046875q0.40625 -0.734375 0.734375 -0.96875q0.34375 -0.234375 0.765625 -0.234375q0.59375 0 1.203125 0.375l-0.40625 1.078125q-0.4375 -0.25 -0.859375 -0.25q-0.390625 0 -0.703125 0.234375q-0.296875 0.234375 -0.421875 0.640625q-0.203125 0.625 -0.203125 1.359375l0 3.625l-1.171875 0zm8.156982 2.65625l0 -9.5625l1.078125 0l0 0.890625q0.375 -0.53125 0.84375 -0.78125q0.484375 -0.265625 1.15625 -0.265625q0.875 0 1.546875 0.453125q0.6875 0.453125 1.03125 1.28125q0.34375 0.828125 0.34375 1.828125q0 1.046875 -0.375 1.90625q-0.375 0.84375 -1.109375 1.296875q-0.71875 0.453125 -1.53125 0.453125q-0.578125 0 -1.046875 -0.25q-0.46875 -0.25 -0.765625 -0.625l0 3.375l-1.171875 0zm1.0625 -6.078125q0 1.34375 0.53125 1.984375q0.546875 0.625 1.3125 0.625q0.78125 0 1.34375 -0.65625q0.5625 -0.65625 0.5625 -2.046875q0 -1.3125 -0.546875 -1.96875q-0.546875 -0.671875 -1.296875 -0.671875q-0.75 0 -1.328125 0.703125q-0.578125 0.703125 -0.578125 2.03125zm10.865601 2.5625q-0.65625 0.5625 -1.265625 0.796875q-0.59375 0.21875 -1.28125 0.21875q-1.140625 0 -1.75 -0.546875q-0.609375 -0.5625 -0.609375 -1.4375q0 -0.5 0.21875 -0.921875q0.234375 -0.421875 0.609375 -0.671875q0.375 -0.25 0.84375 -0.390625q0.34375 -0.078125 1.046875 -0.171875q1.421875 -0.171875 2.09375 -0.40625q0 -0.234375 0 -0.296875q0 -0.71875 -0.328125 -1.015625q-0.453125 -0.390625 -1.34375 -0.390625q-0.8125 0 -1.21875 0.296875q-0.390625 0.28125 -0.578125 1.015625l-1.140625 -0.15625q0.15625 -0.734375 0.515625 -1.1875q0.359375 -0.453125 1.03125 -0.6875q0.671875 -0.25 1.5625 -0.25q0.890625 0 1.4375 0.203125q0.5625 0.203125 0.8125 0.53125q0.265625 0.3125 0.375 0.796875q0.046875 0.296875 0.046875 1.078125l0 1.5625q0 1.625 0.078125 2.0625q0.078125 0.4375 0.296875 0.828125l-1.21875 0q-0.1875 -0.359375 -0.234375 -0.859375zm-0.09375 -2.609375q-0.640625 0.265625 -1.921875 0.4375q-0.71875 0.109375 -1.015625 0.25q-0.296875 0.125 -0.46875 0.375q-0.15625 0.25 -0.15625 0.546875q0 0.46875 0.34375 0.78125q0.359375 0.3125 1.046875 0.3125q0.671875 0 1.203125 -0.296875q0.53125 -0.296875 0.78125 -0.8125q0.1875 -0.390625 0.1875 -1.171875l0 -0.421875zm2.9749756 3.46875l0 -6.90625l1.0625 0l0 1.046875q0.40625 -0.734375 0.734375 -0.96875q0.34375 -0.234375 0.765625 -0.234375q0.59375 0 1.203125 0.375l-0.40625 1.078125q-0.4375 -0.25 -0.859375 -0.25q-0.390625 0 -0.703125 0.234375q-0.296875 0.234375 -0.421875 0.640625q-0.203125 0.625 -0.203125 1.359375l0 3.625l-1.171875 0zm9.18837 -2.21875l1.203125 0.140625q-0.28125 1.0625 -1.0625 1.65625q-0.765625 0.578125 -1.96875 0.578125q-1.515625 0 -2.40625 -0.9375q-0.890625 -0.9375 -0.890625 -2.609375q0 -1.75 0.890625 -2.703125q0.90625 -0.96875 2.34375 -0.96875q1.390625 0 2.265625 0.9375q0.875 0.9375 0.875 2.65625q0 0.109375 0 0.3125l-5.15625 0q0.0625 1.140625 0.640625 1.75q0.578125 0.59375 1.4375 0.59375q0.65625 0 1.109375 -0.328125q0.453125 -0.34375 0.71875 -1.078125zm-3.84375 -1.90625l3.859375 0q-0.078125 -0.859375 -0.4375 -1.296875q-0.5625 -0.6875 -1.453125 -0.6875q-0.8125 0 -1.359375 0.546875q-0.546875 0.53125 -0.609375 1.4375zm6.5218506 4.125l0 -6.90625l1.0625 0l0 0.984375q0.75 -1.140625 2.1875 -1.140625q0.625 0 1.15625 0.21875q0.53125 0.21875 0.78125 0.59375q0.265625 0.359375 0.375 0.859375q0.0625 0.328125 0.0625 1.140625l0 4.25l-1.171875 0l0 -4.203125q0 -0.71875 -0.140625 -1.0625q-0.140625 -0.359375 -0.484375 -0.5625q-0.34375 -0.21875 -0.8125 -0.21875q-0.75 0 -1.296875 0.46875q-0.546875 0.46875 -0.546875 1.796875l0 3.78125l-1.171875 0zm9.974976 -1.046875l0.171875 1.03125q-0.5 0.109375 -0.890625 0.109375q-0.640625 0 -1.0 -0.203125q-0.34375 -0.203125 -0.484375 -0.53125q-0.140625 -0.328125 -0.140625 -1.390625l0 -3.96875l-0.859375 0l0 -0.90625l0.859375 0l0 -1.71875l1.171875 -0.703125l0 2.421875l1.171875 0l0 0.90625l-1.171875 0l0 4.046875q0 0.5 0.046875 0.640625q0.0625 0.140625 0.203125 0.234375q0.140625 0.078125 0.40625 0.078125q0.203125 0 0.515625 -0.046875z" fill-rule="nonzero"/><path fill="#000000" fill-opacity="0.0" d="m231.28346 1.3451444l0 37.82677l-58.173233 0l0 -37.82677z" fill-rule="evenodd"/><path fill="#000000" d="m191.56346 34.813896l4.390625 0l0 4.40625l-4.390625 0l0 -4.40625zm0 -10.656252l4.390625 0l0 4.390625l-4.390625 0l0 -4.390625zm0 -10.671875l4.390625 0l0 4.390625l-4.390625 0l0 -4.390625z" fill-rule="nonzero"/><path fill="#000000" fill-opacity="0.0" d="m110.637794 224.6588l196.50394 0l0 35.559036l-196.50394 0z" fill-rule="evenodd"/><path fill="#000000" d="m136.87915 246.45879l0 -9.546875l1.265625 0l0 8.421875l4.703125 0l0 1.125l-5.96875 0zm6.8812256 -3.453125q0 -1.921875 1.078125 -2.84375q0.890625 -0.765625 2.171875 -0.765625q1.421875 0 2.328125 0.9375q0.90625 0.921875 0.90625 2.578125q0 1.328125 -0.40625 2.09375q-0.390625 0.765625 -1.15625 1.1875q-0.765625 0.421875 -1.671875 0.421875q-1.453125 0 -2.359375 -0.921875q-0.890625 -0.9375 -0.890625 -2.6875zm1.203125 0q0 1.328125 0.578125 1.984375q0.59375 0.65625 1.46875 0.65625q0.875 0 1.453125 -0.65625q0.578125 -0.671875 0.578125 -2.03125q0 -1.28125 -0.59375 -1.9375q-0.578125 -0.65625 -1.4375 -0.65625q-0.875 0 -1.46875 0.65625q-0.578125 0.65625 -0.578125 1.984375zm6.1781006 1.390625l1.15625 -0.1875q0.109375 0.703125 0.546875 1.078125q0.453125 0.359375 1.25 0.359375q0.8125 0 1.203125 -0.328125q0.390625 -0.328125 0.390625 -0.765625q0 -0.390625 -0.359375 -0.625q-0.234375 -0.15625 -1.1875 -0.390625q-1.296875 -0.328125 -1.796875 -0.5625q-0.484375 -0.25 -0.75 -0.65625q-0.25 -0.421875 -0.25 -0.9375q0 -0.453125 0.203125 -0.84375q0.21875 -0.40625 0.578125 -0.671875q0.28125 -0.1875 0.75 -0.328125q0.46875 -0.140625 1.015625 -0.140625q0.8125 0 1.421875 0.234375q0.609375 0.234375 0.90625 0.640625q0.296875 0.390625 0.40625 1.0625l-1.140625 0.15625q-0.078125 -0.53125 -0.453125 -0.828125q-0.375 -0.3125 -1.0625 -0.3125q-0.8125 0 -1.15625 0.265625q-0.34375 0.265625 -0.34375 0.625q0 0.234375 0.140625 0.421875q0.15625 0.1875 0.453125 0.3125q0.171875 0.0625 1.03125 0.296875q1.25 0.328125 1.734375 0.546875q0.5 0.203125 0.78125 0.609375q0.28125 0.40625 0.28125 1.0q0 0.59375 -0.34375 1.109375q-0.34375 0.515625 -1.0 0.796875q-0.640625 0.28125 -1.453125 0.28125q-1.34375 0 -2.046875 -0.5625q-0.703125 -0.5625 -0.90625 -1.65625zm7.1484375 -6.125l0 -1.359375l1.171875 0l0 1.359375l-1.171875 0zm0 8.1875l0 -6.90625l1.171875 0l0 6.90625l-1.171875 0zm2.945465 0l0 -6.90625l1.0625 0l0 0.984375q0.75 -1.140625 2.1875 -1.140625q0.625 0 1.15625 0.21875q0.53125 0.21875 0.78125 0.59375q0.265625 0.359375 0.375 0.859375q0.0625 0.328125 0.0625 1.140625l0 4.25l-1.171875 0l0 -4.203125q0 -0.71875 -0.140625 -1.0625q-0.140625 -0.359375 -0.484375 -0.5625q-0.34375 -0.21875 -0.8125 -0.21875q-0.75 0 -1.296875 0.46875q-0.546875 0.46875 -0.546875 1.796875l0 3.78125l-1.171875 0zm7.1937256 0.578125l1.140625 0.15625q0.078125 0.53125 0.40625 0.78125q0.4375 0.3125 1.1875 0.3125q0.8125 0 1.25 -0.328125q0.453125 -0.3125 0.609375 -0.90625q0.09375 -0.359375 0.078125 -1.5q-0.765625 0.90625 -1.90625 0.90625q-1.4375 0 -2.21875 -1.03125q-0.78125 -1.03125 -0.78125 -2.46875q0 -0.984375 0.359375 -1.8125q0.359375 -0.84375 1.03125 -1.296875q0.6875 -0.453125 1.609375 -0.453125q1.21875 0 2.015625 0.984375l0 -0.828125l1.078125 0l0 5.96875q0 1.609375 -0.328125 2.28125q-0.328125 0.6875 -1.046875 1.078125q-0.703125 0.390625 -1.75 0.390625q-1.234375 0 -2.0 -0.5625q-0.75 -0.5625 -0.734375 -1.671875zm0.984375 -4.15625q0 1.359375 0.53125 1.984375q0.546875 0.625 1.359375 0.625q0.796875 0 1.34375 -0.625q0.546875 -0.625 0.546875 -1.953125q0 -1.265625 -0.5625 -1.90625q-0.5625 -0.640625 -1.359375 -0.640625q-0.765625 0 -1.3125 0.640625q-0.546875 0.625 -0.546875 1.875zm14.865463 2.71875q-0.65625 0.5625 -1.265625 0.796875q-0.59375 0.21875 -1.28125 0.21875q-1.140625 0 -1.75 -0.546875q-0.609375 -0.5625 -0.609375 -1.4375q0 -0.5 0.21875 -0.921875q0.234375 -0.421875 0.609375 -0.671875q0.375 -0.25 0.84375 -0.390625q0.34375 -0.078125 1.046875 -0.171875q1.421875 -0.171875 2.09375 -0.40625q0 -0.234375 0 -0.296875q0 -0.71875 -0.328125 -1.015625q-0.453125 -0.390625 -1.34375 -0.390625q-0.8125 0 -1.21875 0.296875q-0.390625 0.28125 -0.578125 1.015625l-1.140625 -0.15625q0.15625 -0.734375 0.515625 -1.1875q0.359375 -0.453125 1.03125 -0.6875q0.671875 -0.25 1.5625 -0.25q0.890625 0 1.4375 0.203125q0.5625 0.203125 0.8125 0.53125q0.265625 0.3125 0.375 0.796875q0.046875 0.296875 0.046875 1.078125l0 1.5625q0 1.625 0.078125 2.0625q0.078125 0.4375 0.296875 0.828125l-1.21875 0q-0.1875 -0.359375 -0.234375 -0.859375zm-0.09375 -2.609375q-0.640625 0.265625 -1.921875 0.4375q-0.71875 0.109375 -1.015625 0.25q-0.296875 0.125 -0.46875 0.375q-0.15625 0.25 -0.15625 0.546875q0 0.46875 0.34375 0.78125q0.359375 0.3125 1.046875 0.3125q0.671875 0 1.203125 -0.296875q0.53125 -0.296875 0.78125 -0.8125q0.1875 -0.390625 0.1875 -1.171875l0 -0.421875zm7.5062256 0.9375l1.15625 0.15625q-0.1875 1.1875 -0.96875 1.859375q-0.78125 0.671875 -1.921875 0.671875q-1.40625 0 -2.28125 -0.921875q-0.859375 -0.9375 -0.859375 -2.65625q0 -1.125 0.375 -1.96875q0.375 -0.84375 1.125 -1.25q0.765625 -0.421875 1.65625 -0.421875q1.125 0 1.84375 0.578125q0.71875 0.5625 0.921875 1.609375l-1.140625 0.171875q-0.171875 -0.703125 -0.59375 -1.046875q-0.40625 -0.359375 -0.984375 -0.359375q-0.890625 0 -1.453125 0.640625q-0.546875 0.640625 -0.546875 2.0q0 1.40625 0.53125 2.03125q0.546875 0.625 1.40625 0.625q0.6875 0 1.140625 -0.421875q0.46875 -0.421875 0.59375 -1.296875zm4.7109375 1.484375l0.171875 1.03125q-0.5 0.109375 -0.890625 0.109375q-0.640625 0 -1.0 -0.203125q-0.34375 -0.203125 -0.484375 -0.53125q-0.140625 -0.328125 -0.140625 -1.390625l0 -3.96875l-0.859375 0l0 -0.90625l0.859375 0l0 -1.71875l1.171875 -0.703125l0 2.421875l1.171875 0l0 0.90625l-1.171875 0l0 4.046875q0 0.5 0.046875 0.640625q0.0625 0.140625 0.203125 0.234375q0.140625 0.078125 0.40625 0.078125q0.203125 0 0.515625 -0.046875zm1.1561127 -7.140625l0 -1.359375l1.171875 0l0 1.359375l-1.171875 0zm0 8.1875l0 -6.90625l1.171875 0l0 6.90625l-1.171875 0zm2.507965 -3.453125q0 -1.921875 1.078125 -2.84375q0.890625 -0.765625 2.171875 -0.765625q1.421875 0 2.328125 0.9375q0.90625 0.921875 0.90625 2.578125q0 1.328125 -0.40625 2.09375q-0.390625 0.765625 -1.15625 1.1875q-0.765625 0.421875 -1.671875 0.421875q-1.453125 0 -2.359375 -0.921875q-0.890625 -0.9375 -0.890625 -2.6875zm1.203125 0q0 1.328125 0.578125 1.984375q0.59375 0.65625 1.46875 0.65625q0.875 0 1.453125 -0.65625q0.578125 -0.671875 0.578125 -2.03125q0 -1.28125 -0.59375 -1.9375q-0.578125 -0.65625 -1.4375 -0.65625q-0.875 0 -1.46875 0.65625q-0.578125 0.65625 -0.578125 1.984375zm6.6468506 3.453125l0 -6.90625l1.0625 0l0 0.984375q0.75 -1.140625 2.1875 -1.140625q0.625 0 1.15625 0.21875q0.53125 0.21875 0.78125 0.59375q0.265625 0.359375 0.375 0.859375q0.0625 0.328125 0.0625 1.140625l0 4.25l-1.171875 0l0 -4.203125q0 -0.71875 -0.140625 -1.0625q-0.140625 -0.359375 -0.484375 -0.5625q-0.34375 -0.21875 -0.8125 -0.21875q-0.75 0 -1.296875 0.46875q-0.546875 0.46875 -0.546875 1.796875l0 3.78125l-1.171875 0zm6.9437256 -2.0625l1.15625 -0.1875q0.109375 0.703125 0.546875 1.078125q0.453125 0.359375 1.25 0.359375q0.8125 0 1.203125 -0.328125q0.390625 -0.328125 0.390625 -0.765625q0 -0.390625 -0.359375 -0.625q-0.234375 -0.15625 -1.1875 -0.390625q-1.296875 -0.328125 -1.796875 -0.5625q-0.484375 -0.25 -0.75 -0.65625q-0.25 -0.421875 -0.25 -0.9375q0 -0.453125 0.203125 -0.84375q0.21875 -0.40625 0.578125 -0.671875q0.28125 -0.1875 0.75 -0.328125q0.46875 -0.140625 1.015625 -0.140625q0.8125 0 1.421875 0.234375q0.609375 0.234375 0.90625 0.640625q0.296875 0.390625 0.40625 1.0625l-1.140625 0.15625q-0.078125 -0.53125 -0.453125 -0.828125q-0.375 -0.3125 -1.0625 -0.3125q-0.8125 0 -1.15625 0.265625q-0.34375 0.265625 -0.34375 0.625q0 0.234375 0.140625 0.421875q0.15625 0.1875 0.453125 0.3125q0.171875 0.0625 1.03125 0.296875q1.25 0.328125 1.734375 0.546875q0.5 0.203125 0.78125 0.609375q0.28125 0.40625 0.28125 1.0q0 0.59375 -0.34375 1.109375q-0.34375 0.515625 -1.0 0.796875q-0.640625 0.28125 -1.453125 0.28125q-1.34375 0 -2.046875 -0.5625q-0.703125 -0.5625 -0.90625 -1.65625zm11.11705 2.0625l0 -6.0l-1.03125 0l0 -0.90625l1.03125 0l0 -0.734375q0 -0.703125 0.125 -1.046875q0.171875 -0.453125 0.59375 -0.734375q0.421875 -0.28125 1.203125 -0.28125q0.484375 0 1.09375 0.109375l-0.1875 1.03125q-0.359375 -0.0625 -0.6875 -0.0625q-0.53125 0 -0.75 0.234375q-0.21875 0.21875 -0.21875 0.84375l0 0.640625l1.34375 0l0 0.90625l-1.34375 0l0 6.0l-1.171875 0zm2.9842377 -3.453125q0 -1.921875 1.078125 -2.84375q0.890625 -0.765625 2.171875 -0.765625q1.421875 0 2.328125 0.9375q0.90625 0.921875 0.90625 2.578125q0 1.328125 -0.40625 2.09375q-0.390625 0.765625 -1.15625 1.1875q-0.765625 0.421875 -1.671875 0.421875q-1.453125 0 -2.359375 -0.921875q-0.890625 -0.9375 -0.890625 -2.6875zm1.203125 0q0 1.328125 0.578125 1.984375q0.59375 0.65625 1.46875 0.65625q0.875 0 1.453125 -0.65625q0.578125 -0.671875 0.578125 -2.03125q0 -1.28125 -0.59375 -1.9375q-0.578125 -0.65625 -1.4375 -0.65625q-0.875 0 -1.46875 0.65625q-0.578125 0.65625 -0.578125 1.984375zm6.6312256 3.453125l0 -6.90625l1.0625 0l0 1.046875q0.40625 -0.734375 0.734375 -0.96875q0.34375 -0.234375 0.765625 -0.234375q0.59375 0 1.203125 0.375l-0.40625 1.078125q-0.4375 -0.25 -0.859375 -0.25q-0.390625 0 -0.703125 0.234375q-0.296875 0.234375 -0.421875 0.640625q-0.203125 0.625 -0.203125 1.359375l0 3.625l-1.171875 0zm8.156982 2.65625l0 -9.5625l1.078125 0l0 0.890625q0.375 -0.53125 0.84375 -0.78125q0.484375 -0.265625 1.15625 -0.265625q0.875 0 1.546875 0.453125q0.6875 0.453125 1.03125 1.28125q0.34375 0.828125 0.34375 1.828125q0 1.046875 -0.375 1.90625q-0.375 0.84375 -1.109375 1.296875q-0.71875 0.453125 -1.53125 0.453125q-0.578125 0 -1.046875 -0.25q-0.46875 -0.25 -0.765625 -0.625l0 3.375l-1.171875 0zm1.0625 -6.078125q0 1.34375 0.53125 1.984375q0.546875 0.625 1.3125 0.625q0.78125 0 1.34375 -0.65625q0.5625 -0.65625 0.5625 -2.046875q0 -1.3125 -0.546875 -1.96875q-0.546875 -0.671875 -1.296875 -0.671875q-0.75 0 -1.328125 0.703125q-0.578125 0.703125 -0.578125 2.03125zm10.865601 2.5625q-0.65625 0.5625 -1.265625 0.796875q-0.59375 0.21875 -1.28125 0.21875q-1.140625 0 -1.75 -0.546875q-0.609375 -0.5625 -0.609375 -1.4375q0 -0.5 0.21875 -0.921875q0.234375 -0.421875 0.609375 -0.671875q0.375 -0.25 0.84375 -0.390625q0.34375 -0.078125 1.046875 -0.171875q1.421875 -0.171875 2.09375 -0.40625q0 -0.234375 0 -0.296875q0 -0.71875 -0.328125 -1.015625q-0.453125 -0.390625 -1.34375 -0.390625q-0.8125 0 -1.21875 0.296875q-0.390625 0.28125 -0.578125 1.015625l-1.140625 -0.15625q0.15625 -0.734375 0.515625 -1.1875q0.359375 -0.453125 1.03125 -0.6875q0.671875 -0.25 1.5625 -0.25q0.890625 0 1.4375 0.203125q0.5625 0.203125 0.8125 0.53125q0.265625 0.3125 0.375 0.796875q0.046875 0.296875 0.046875 1.078125l0 1.5625q0 1.625 0.078125 2.0625q0.078125 0.4375 0.296875 0.828125l-1.21875 0q-0.1875 -0.359375 -0.234375 -0.859375zm-0.09375 -2.609375q-0.640625 0.265625 -1.921875 0.4375q-0.71875 0.109375 -1.015625 0.25q-0.296875 0.125 -0.46875 0.375q-0.15625 0.25 -0.15625 0.546875q0 0.46875 0.34375 0.78125q0.359375 0.3125 1.046875 0.3125q0.671875 0 1.203125 -0.296875q0.53125 -0.296875 0.78125 -0.8125q0.1875 -0.390625 0.1875 -1.171875l0 -0.421875zm2.9749756 3.46875l0 -6.90625l1.0625 0l0 1.046875q0.40625 -0.734375 0.734375 -0.96875q0.34375 -0.234375 0.765625 -0.234375q0.59375 0 1.203125 0.375l-0.40625 1.078125q-0.4375 -0.25 -0.859375 -0.25q-0.390625 0 -0.703125 0.234375q-0.296875 0.234375 -0.421875 0.640625q-0.203125 0.625 -0.203125 1.359375l0 3.625l-1.171875 0zm9.1883545 -2.21875l1.203125 0.140625q-0.28125 1.0625 -1.0625 1.65625q-0.765625 0.578125 -1.96875 0.578125q-1.515625 0 -2.40625 -0.9375q-0.890625 -0.9375 -0.890625 -2.609375q0 -1.75 0.890625 -2.703125q0.90625 -0.96875 2.34375 -0.96875q1.390625 0 2.265625 0.9375q0.875 0.9375 0.875 2.65625q0 0.109375 0 0.3125l-5.15625 0q0.0625 1.140625 0.640625 1.75q0.578125 0.59375 1.4375 0.59375q0.65625 0 1.109375 -0.328125q0.453125 -0.34375 0.71875 -1.078125zm-3.84375 -1.90625l3.859375 0q-0.078125 -0.859375 -0.4375 -1.296875q-0.5625 -0.6875 -1.453125 -0.6875q-0.8125 0 -1.359375 0.546875q-0.546875 0.53125 -0.609375 1.4375zm6.5218506 4.125l0 -6.90625l1.0625 0l0 0.984375q0.75 -1.140625 2.1875 -1.140625q0.625 0 1.15625 0.21875q0.53125 0.21875 0.78125 0.59375q0.265625 0.359375 0.375 0.859375q0.0625 0.328125 0.0625 1.140625l0 4.25l-1.171875 0l0 -4.203125q0 -0.71875 -0.140625 -1.0625q-0.140625 -0.359375 -0.484375 -0.5625q-0.34375 -0.21875 -0.8125 -0.21875q-0.75 0 -1.296875 0.46875q-0.546875 0.46875 -0.546875 1.796875l0 3.78125l-1.171875 0zm9.974976 -1.046875l0.171875 1.03125q-0.5 0.109375 -0.890625 0.109375q-0.640625 0 -1.0 -0.203125q-0.34375 -0.203125 -0.484375 -0.53125q-0.140625 -0.328125 -0.140625 -1.390625l0 -3.96875l-0.859375 0l0 -0.90625l0.859375 0l0 -1.71875l1.171875 -0.703125l0 2.421875l1.171875 0l0 0.90625l-1.171875 0l0 4.046875q0 0.5 0.046875 0.640625q0.0625 0.140625 0.203125 0.234375q0.140625 0.078125 0.40625 0.078125q0.203125 0 0.515625 -0.046875z" fill-rule="nonzero"/><g filter="url(#shadowFilter-p.1)"><use xlink:href="#p.1" transform=""/></g><defs><filter id="shadowFilter-p.1" filterUnits="userSpaceOnUse"><feGaussianBlur in="SourceAlpha" stdDeviation="1.0" result="blur"/><feComponentTransfer in="blur" color-interpolation-filters="sRGB"><feFuncR type="linear" slope="0" intercept="0.0"/><feFuncG type="linear" slope="0" intercept="0.0"/><feFuncB type="linear" slope="0" intercept="0.0"/><feFuncA type="linear" slope="1.0" intercept="0"/></feComponentTransfer></filter></defs><g id="p.1"><path fill="#000000" fill-opacity="0.0" d="m116.92126 184.4685l75.84252 -93.22835" fill-rule="evenodd"/><path stroke="#ff0000" stroke-width="1.0" stroke-linejoin="round" stroke-linecap="butt" d="m116.92126 184.4685l72.05613 -88.573975" fill-rule="evenodd"/><path fill="#ff0000" stroke="#ff0000" stroke-width="1.0" stroke-linecap="butt" d="m190.25868 96.93688l1.5825348 -4.562683l-4.1451263 2.4779816z" fill-rule="evenodd"/></g><g filter="url(#shadowFilter-p.2)"><use xlink:href="#p.2" transform=""/></g><defs><filter id="shadowFilter-p.2" filterUnits="userSpaceOnUse"><feGaussianBlur in="SourceAlpha" stdDeviation="1.0" result="blur"/><feComponentTransfer in="blur" color-interpolation-filters="sRGB"><feFuncR type="linear" slope="0" intercept="0.0"/><feFuncG type="linear" slope="0" intercept="0.0"/><feFuncB type="linear" slope="0" intercept="0.0"/><feFuncA type="linear" slope="1.0" intercept="0"/></feComponentTransfer></filter></defs><g id="p.2"><path fill="#000000" fill-opacity="0.0" d="m263.44095 184.4685l-70.67717 -93.22835" fill-rule="evenodd"/><path stroke="#ff0000" stroke-width="1.0" stroke-linejoin="round" stroke-linecap="butt" d="m263.44095 184.4685l-67.052414 -88.447014" fill-rule="evenodd"/><path fill="#ff0000" stroke="#ff0000" stroke-width="1.0" stroke-linecap="butt" d="m197.70479 95.02363l-4.057831 -2.6184998l1.4253387 4.614212z" fill-rule="evenodd"/></g><g filter="url(#shadowFilter-p.3)"><use xlink:href="#p.3" transform=""/></g><defs><filter id="shadowFilter-p.3" filterUnits="userSpaceOnUse"><feGaussianBlur in="SourceAlpha" stdDeviation="2.0" result="blur"/><feComponentTransfer in="blur" color-interpolation-filters="sRGB"><feFuncR type="linear" slope="0" intercept="0.0"/><feFuncG type="linear" slope="0" intercept="0.0"/><feFuncB type="linear" slope="0" intercept="0.0"/><feFuncA type="linear" slope="1.0" intercept="0"/></feComponentTransfer></filter></defs><g id="p.3"><path fill="#000000" fill-opacity="0.0" d="m192.76378 184.4685l0 -93.22835" fill-rule="evenodd"/><path stroke="#ff0000" stroke-width="1.0" stroke-linejoin="round" stroke-linecap="butt" d="m192.76378 184.4685l0 -87.22835" fill-rule="evenodd"/><path fill="#ff0000" stroke="#ff0000" stroke-width="1.0" stroke-linecap="butt" d="m194.41551 97.24016l-1.6517334 -4.538101l-1.6517334 4.538101z" fill-rule="evenodd"/></g><g filter="url(#shadowFilter-p.4)"><use xlink:href="#p.4" transform=""/></g><defs><filter id="shadowFilter-p.4" filterUnits="userSpaceOnUse"><feGaussianBlur in="SourceAlpha" stdDeviation="1.0" result="blur"/><feComponentTransfer in="blur" color-interpolation-filters="sRGB"><feFuncR type="linear" slope="0" intercept="0.0"/><feFuncG type="linear" slope="0" intercept="0.0"/><feFuncB type="linear" slope="0" intercept="0.0"/><feFuncA type="linear" slope="1.0" intercept="0"/></feComponentTransfer></filter></defs><g id="p.4"><path fill="#000000" fill-opacity="0.0" d="m69.509186 295.41733l47.90551 -70.897644" fill-rule="evenodd"/><path stroke="#ff0000" stroke-width="1.0" stroke-linejoin="round" stroke-linecap="butt" d="m69.509186 295.41733l44.546288 -65.92616" fill-rule="evenodd"/><path fill="#ff0000" stroke="#ff0000" stroke-width="1.0" stroke-linecap="butt" d="m115.424065 230.41592l1.1721573 -4.6849365l-3.90934 2.8354187z" fill-rule="evenodd"/></g><path fill="#000000" fill-opacity="0.0" d="m11.407901 237.68242l75.84252 0l0 35.559036l-75.84252 0z" fill-rule="evenodd"/><path fill="#000000" d="m21.37665 259.48242l0 -9.54689l3.59375 0q1.09375 0 1.75 0.296875q0.65625 0.28125 1.03125 0.890625q0.375 0.609375 0.375 1.265625q0 0.609375 -0.34375 1.15625q-0.328125 0.53125 -0.984375 0.859375q0.859375 0.25 1.328125 0.875q0.46875 0.609375 0.46875 1.4375153q0 0.671875 -0.296875 1.25q-0.28125 0.578125 -0.703125 0.890625q-0.40625 0.3125 -1.03125 0.46875q-0.625 0.15625 -1.546875 0.15625l-3.640625 0zm1.265625 -5.5312653l2.0625 0q0.84375 0 1.203125 -0.109375q0.484375 -0.140625 0.71875 -0.46875q0.25 -0.34375 0.25 -0.84375q0 -0.46875 -0.234375 -0.828125q-0.21875 -0.359375 -0.640625 -0.5q-0.421875 -0.140625 -1.453125 -0.140625l-1.90625 0l0 2.890625zm0 4.4062653l2.375 0q0.609375 0 0.859375 -0.046875q0.4375 -0.078125 0.734375 -0.25q0.296875 -0.1875 0.484375 -0.53125q0.1875 -0.359375 0.1875 -0.8125q0 -0.53125 -0.28125 -0.92189026q-0.265625 -0.40625 -0.75 -0.5625q-0.484375 -0.15625 -1.40625 -0.15625l-2.203125 0l0 3.2812653zm12.046007 0.265625q-0.65625 0.5625 -1.265625 0.796875q-0.59375 0.21875 -1.28125 0.21875q-1.1406269 0 -1.7500019 -0.546875q-0.609375 -0.5625 -0.609375 -1.4375q0 -0.5 0.21875 -0.921875q0.234375 -0.421875 0.609375 -0.671875q0.375 -0.25001526 0.84375 -0.39064026q0.34375 -0.078125 1.0468769 -0.171875q1.421875 -0.171875 2.09375 -0.40625q0 -0.234375 0 -0.296875q0 -0.71875 -0.328125 -1.015625q-0.453125 -0.390625 -1.34375 -0.390625q-0.8125 0 -1.2187519 0.296875q-0.390625 0.28125 -0.578125 1.015625l-1.140625 -0.15625q0.15625 -0.734375 0.515625 -1.1875q0.359375 -0.453125 1.03125 -0.6875q0.6718769 -0.25 1.5625019 -0.25q0.890625 0 1.4375 0.203125q0.5625 0.203125 0.8125 0.53125q0.265625 0.3125 0.375 0.796875q0.046875 0.296875 0.046875 1.078125l0 1.5625153q0 1.625 0.078125 2.0625q0.078125 0.4375 0.296875 0.828125l-1.21875 0q-0.1875 -0.359375 -0.234375 -0.859375zm-0.09375 -2.609375q-0.640625 0.265625 -1.921875 0.4375q-0.7187519 0.109375 -1.0156269 0.25q-0.296875 0.125 -0.46875 0.375q-0.15625 0.25 -0.15625 0.546875q0 0.46875 0.34375 0.78125q0.359375 0.3125 1.0468769 0.3125q0.671875 0 1.203125 -0.296875q0.53125 -0.296875 0.78125 -0.8125q0.1875 -0.390625 0.1875 -1.171875l0 -0.421875zm7.5062256 0.9375l1.15625 0.15625q-0.1875 1.1875 -0.96875 1.859375q-0.78125 0.671875 -1.921875 0.671875q-1.40625 0 -2.28125 -0.921875q-0.859375 -0.9375 -0.859375 -2.65625q0 -1.1250153 0.375 -1.9687653q0.375 -0.84375 1.125 -1.25q0.765625 -0.421875 1.65625 -0.421875q1.125 0 1.84375 0.578125q0.71875 0.5625 0.921875 1.609375l-1.140625 0.171875q-0.171875 -0.703125 -0.59375 -1.046875q-0.40625 -0.359375 -0.984375 -0.359375q-0.890625 0 -1.453125 0.640625q-0.546875 0.640625 -0.546875 2.0000153q0 1.40625 0.53125 2.03125q0.546875 0.625 1.40625 0.625q0.6875 0 1.140625 -0.421875q0.46875 -0.421875 0.59375 -1.296875zm2.1640625 2.53125l0 -9.54689l1.171875 0l0 5.453125l2.765625 -2.8125l1.515625 0l-2.640625 2.5625l2.90625 4.3437653l-1.4375 0l-2.28125 -3.5312653l-0.828125 0.79689026l0 2.734375l-1.171875 0zm6.6484375 2.65625l0 -9.562515l1.078125 0l0 0.890625q0.375 -0.53125 0.84375 -0.78125q0.484375 -0.265625 1.15625 -0.265625q0.875 0 1.546875 0.453125q0.6875 0.453125 1.03125 1.28125q0.34375 0.828125 0.34375 1.828125q0 1.0468903 -0.375 1.9062653q-0.375 0.84375 -1.109375 1.296875q-0.71875 0.453125 -1.53125 0.453125q-0.578125 0 -1.046875 -0.25q-0.46875 -0.25 -0.765625 -0.625l0 3.375l-1.171875 0zm1.0625 -6.078125q0 1.34375 0.53125 1.984375q0.546875 0.625 1.3125 0.625q0.78125 0 1.34375 -0.65625q0.5625 -0.65625 0.5625 -2.0468903q0 -1.3125 -0.546875 -1.96875q-0.546875 -0.671875 -1.296875 -0.671875q-0.75 0 -1.328125 0.703125q-0.578125 0.703125 -0.578125 2.0312653zm6.3343506 3.421875l0 -6.9062653l1.0625 0l0 1.046875q0.40625 -0.734375 0.734375 -0.96875q0.34375 -0.234375 0.765625 -0.234375q0.59375 0 1.203125 0.375l-0.40625 1.078125q-0.4375 -0.25 -0.859375 -0.25q-0.390625 0 -0.703125 0.234375q-0.296875 0.234375 -0.421875 0.640625q-0.203125 0.625 -0.203125 1.359375l0 3.6250153l-1.171875 0zm4.0164948 -3.453125q0 -1.9218903 1.078125 -2.8437653q0.8906212 -0.765625 2.1718712 -0.765625q1.421875 0 2.328125 0.9375q0.90625 0.921875 0.90625 2.578125q0 1.3281403 -0.40625 2.0937653q-0.390625 0.765625 -1.15625 1.1875q-0.765625 0.421875 -1.671875 0.421875q-1.453125 0 -2.3593712 -0.921875q-0.890625 -0.9375 -0.890625 -2.6875zm1.203125 0q0 1.328125 0.5781212 1.984375q0.59375 0.65625 1.46875 0.65625q0.875 0 1.453125 -0.65625q0.578125 -0.671875 0.578125 -2.0312653q0 -1.28125 -0.59375 -1.9375q-0.578125 -0.65625 -1.4375 -0.65625q-0.875 0 -1.46875 0.65625q-0.5781212 0.65625 -0.5781212 1.9843903zm6.646847 6.109375l0 -9.562515l1.078125 0l0 0.890625q0.375 -0.53125 0.84375 -0.78125q0.484375 -0.265625 1.15625 -0.265625q0.875 0 1.546875 0.453125q0.6875 0.453125 1.03125 1.28125q0.34375 0.828125 0.34375 1.828125q0 1.0468903 -0.375 1.9062653q-0.375 0.84375 -1.109375 1.296875q-0.71875 0.453125 -1.53125 0.453125q-0.578125 0 -1.046875 -0.25q-0.46875 -0.25 -0.765625 -0.625l0 3.375l-1.171875 0zm1.0625 -6.078125q0 1.34375 0.53125 1.984375q0.546875 0.625 1.3125 0.625q0.78125 0 1.34375 -0.65625q0.5625 -0.65625 0.5625 -2.0468903q0 -1.3125 -0.546875 -1.96875q-0.546875 -0.671875 -1.296875 -0.671875q-0.75 0 -1.328125 0.703125q-0.578125 0.703125 -0.578125 2.0312653z" fill-rule="nonzero"/><path fill="#000000" fill-opacity="0.0" d="m59.801838 218.08398l50.834644 0l0 42.015747l-50.834644 0z" fill-rule="evenodd"/><path fill="#222222" d="m76.21289 240.12898l4.71875 0l0 1.375l-4.71875 0l0 -1.375zm11.400177 -1.203125q0.625 -1.421875 1.359375 -1.96875q0.734375 -0.546875 2.015625 -0.546875q1.4687424 0 2.4687424 1.0625q1.015625 1.046875 1.015625 2.734375q0 1.65625 -0.984375 2.75q-0.984375 1.078125 -2.1874924 1.078125q-0.90625 0 -1.671875 -0.671875q-0.515625 -0.4375 -1.40625 -1.9375q-0.578125 1.125 -1.265625 1.625q-0.6875 0.5 -1.671875 0.5q-1.3125 0 -2.21875 -0.9375q-0.90625 -0.9375 -0.90625 -2.421875q0 -1.515625 0.828125 -2.421875q0.84375 -0.921875 1.96875 -0.921875q0.78125 0 1.375 0.40625q0.609375 0.40625 1.28125 1.671875zm0.875 1.84375q0.6875 1.421875 1.34375 1.921875q0.671875 0.484375 1.5 0.484375q1.1249924 0 1.8749924 -0.796875q0.75 -0.8125 0.75 -2.171875q0 -1.34375 -0.796875 -2.21875q-0.78125 -0.875 -1.7656174 -0.875q-0.625 0 -1.109375 0.328125q-0.46875 0.3125 -0.84375 1.015625q-0.21875 0.40625 -0.953125 2.3125zm-1.140625 -1.140625q-0.4375 -1.0 -1.015625 -1.46875q-0.578125 -0.484375 -1.40625 -0.484375q-0.96875 0 -1.625 0.6875q-0.640625 0.671875 -0.640625 1.8125q0 1.21875 0.640625 1.9375q0.640625 0.71875 1.453125 0.71875q0.859375 0 1.53125 -0.765625q0.421875 -0.515625 1.0625 -2.4375z" fill-rule="nonzero"/><path fill="#000000" fill-opacity="0.0" d="m129.42389 99.89239l50.83464 0l0 42.015755l-50.83464 0z" fill-rule="evenodd"/><path fill="#222222" d="m154.12877 120.73426q0.625 -1.421875 1.359375 -1.96875q0.734375 -0.546875 2.015625 -0.546875q1.46875 0 2.46875 1.0625q1.015625 1.046875 1.015625 2.734375q0 1.65625 -0.984375 2.75q-0.984375 1.078125 -2.1875 1.078125q-0.90625 0 -1.671875 -0.671875q-0.515625 -0.4375 -1.40625 -1.9375q-0.578125 1.125 -1.265625 1.625q-0.6875 0.5 -1.671875 0.5q-1.3125 0 -2.21875 -0.9375q-0.90625 -0.9375 -0.90625 -2.421875q0 -1.515625 0.828125 -2.421875q0.84375 -0.921875 1.96875 -0.921875q0.78125 0 1.375 0.40625q0.609375 0.40625 1.28125 1.671875zm0.875 1.84375q0.6875 1.421875 1.34375 1.921875q0.671875 0.484375 1.5 0.484375q1.125 0 1.875 -0.796875q0.75 -0.8125 0.75 -2.171875q0 -1.34375 -0.796875 -2.21875q-0.78125 -0.875 -1.765625 -0.875q-0.625 0 -1.109375 0.328125q-0.46875 0.3125 -0.84375 1.015625q-0.21875 0.40625 -0.953125 2.3125zm-1.140625 -1.140625q-0.4375 -1.0 -1.015625 -1.46875q-0.578125 -0.484375 -1.40625 -0.484375q-0.96875 0 -1.625 0.6875q-0.640625 0.671875 -0.640625 1.8125q0 1.21875 0.640625 1.9375q0.640625 0.71875 1.453125 0.71875q0.859375 0 1.53125 -0.765625q0.421875 -0.515625 1.0625 -2.4375z" fill-rule="nonzero"/><path fill="#000000" fill-opacity="0.0" d="m156.01706 99.89239l50.83464 0l0 42.015755l-50.83464 0z" fill-rule="evenodd"/><path fill="#222222" d="m180.72195 120.73426q0.625 -1.421875 1.359375 -1.96875q0.734375 -0.546875 2.015625 -0.546875q1.46875 0 2.46875 1.0625q1.015625 1.046875 1.015625 2.734375q0 1.65625 -0.984375 2.75q-0.984375 1.078125 -2.1875 1.078125q-0.90625 0 -1.671875 -0.671875q-0.515625 -0.4375 -1.40625 -1.9375q-0.578125 1.125 -1.265625 1.625q-0.6875 0.5 -1.671875 0.5q-1.3125 0 -2.21875 -0.9375q-0.90625 -0.9375 -0.90625 -2.421875q0 -1.515625 0.828125 -2.421875q0.84375 -0.921875 1.96875 -0.921875q0.78125 0 1.375 0.40625q0.609375 0.40625 1.28125 1.671875zm0.875 1.84375q0.6875 1.421875 1.34375 1.921875q0.671875 0.484375 1.5 0.484375q1.125 0 1.875 -0.796875q0.75 -0.8125 0.75 -2.171875q0 -1.34375 -0.796875 -2.21875q-0.78125 -0.875 -1.765625 -0.875q-0.625 0 -1.109375 0.328125q-0.46875 0.3125 -0.84375 1.015625q-0.21875 0.40625 -0.953125 2.3125zm-1.140625 -1.140625q-0.4375 -1.0 -1.015625 -1.46875q-0.578125 -0.484375 -1.40625 -0.484375q-0.96875 0 -1.625 0.6875q-0.640625 0.671875 -0.640625 1.8125q0 1.21875 0.640625 1.9375q0.640625 0.71875 1.453125 0.71875q0.859375 0 1.53125 -0.765625q0.421875 -0.515625 1.0625 -2.4375z" fill-rule="nonzero"/><path fill="#000000" fill-opacity="0.0" d="m180.25853 99.89239l50.83464 0l0 42.015755l-50.83464 0z" fill-rule="evenodd"/><path fill="#222222" d="m204.96342 120.73426q0.625 -1.421875 1.359375 -1.96875q0.734375 -0.546875 2.015625 -0.546875q1.46875 0 2.46875 1.0625q1.015625 1.046875 1.015625 2.734375q0 1.65625 -0.984375 2.75q-0.984375 1.078125 -2.1875 1.078125q-0.90625 0 -1.671875 -0.671875q-0.515625 -0.4375 -1.40625 -1.9375q-0.578125 1.125 -1.265625 1.625q-0.6875 0.5 -1.671875 0.5q-1.3125 0 -2.21875 -0.9375q-0.90625 -0.9375 -0.90625 -2.421875q0 -1.515625 0.828125 -2.421875q0.84375 -0.921875 1.96875 -0.921875q0.78125 0 1.375 0.40625q0.609375 0.40625 1.28125 1.671875zm0.875 1.84375q0.6875 1.421875 1.34375 1.921875q0.671875 0.484375 1.5 0.484375q1.125 0 1.875 -0.796875q0.75 -0.8125 0.75 -2.171875q0 -1.34375 -0.796875 -2.21875q-0.78125 -0.875 -1.765625 -0.875q-0.625 0 -1.109375 0.328125q-0.46875 0.3125 -0.84375 1.015625q-0.21875 0.40625 -0.953125 2.3125zm-1.140625 -1.140625q-0.4375 -1.0 -1.015625 -1.46875q-0.578125 -0.484375 -1.40625 -0.484375q-0.96875 0 -1.625 0.6875q-0.640625 0.671875 -0.640625 1.8125q0 1.21875 0.640625 1.9375q0.640625 0.71875 1.453125 0.71875q0.859375 0 1.53125 -0.765625q0.421875 -0.515625 1.0625 -2.4375z" fill-rule="nonzero"/></g></svg>